<?xml version="1.0" encoding="UTF-8" standalone="no"?>
<!DOCTYPE svg PUBLIC "-//W3C//DTD SVG 1.1//EN"
 "http://www.w3.org/Graphics/SVG/1.1/DTD/svg11.dtd">
<!-- Generated by graphviz version 2.47.0 (20210316.0004)
 -->
<!-- Title: dependencies Pages: 1 -->
<svg width="782pt" height="276pt"
 viewBox="0.00 0.00 782.00 276.00" xmlns="http://www.w3.org/2000/svg" xmlns:xlink="http://www.w3.org/1999/xlink">
<g id="graph0" class="graph" transform="scale(1 1) rotate(0) translate(4 272)">
<title>dependencies</title>
<polygon fill="white" stroke="transparent" points="-4,4 -4,-272 778,-272 778,4 -4,4"/>
<text text-anchor="start" x="366.01" y="-42.4" font-family="Times-12" font-weight="bold" font-size="14.00">Legend</text>
<polygon fill="#ffffb3" stroke="transparent" points="153,-10 153,-30 173,-30 173,-10 153,-10"/>
<text text-anchor="start" x="176.63" y="-15.4" font-family="Times-12" font-size="14.00"> &#160;Declarations</text>
<polygon fill="#8dd3c7" stroke="transparent" points="266,-10 266,-30 286,-30 286,-10 266,-10"/>
<text text-anchor="start" x="289.73" y="-15.4" font-family="Times-12" font-size="14.00"> &#160;Module</text>
<polygon fill="#80b1d3" stroke="transparent" points="352,-10 352,-30 372,-30 372,-10 352,-10"/>
<text text-anchor="start" x="375.78" y="-15.4" font-family="Times-12" font-size="14.00"> &#160;Bootstrap</text>
<polygon fill="#fdb462" stroke="transparent" points="449,-10 449,-30 469,-30 469,-10 449,-10"/>
<text text-anchor="start" x="472.67" y="-15.4" font-family="Times-12" font-size="14.00"> &#160;Providers</text>
<polygon fill="#fb8072" stroke="transparent" points="545,-10 545,-30 565,-30 565,-10 545,-10"/>
<text text-anchor="start" x="568.73" y="-15.4" font-family="Times-12" font-size="14.00"> &#160;Exports</text>
<g id="clust1" class="cluster">
<title>cluster_ReservationModule</title>
<polygon fill="none" stroke="black" stroke-dasharray="1,5" points="8,-70 8,-260 766,-260 766,-70 8,-70"/>
</g>
<g id="clust6" class="cluster">
<title>cluster_ReservationModule_imports</title>
<polygon fill="none" stroke="black" points="622,-143 622,-195 758,-195 758,-143 622,-143"/>
</g>
<g id="clust3" class="cluster">
<title>cluster_ReservationModule_ReservationComponent_providers</title>
<polygon fill="none" stroke="black" points="426,-78 426,-195 614,-195 614,-78 426,-78"/>
</g>
<g id="clust2" class="cluster">
<title>cluster_ReservationModule_declarations</title>
<polygon fill="none" stroke="black" points="16,-143 16,-195 418,-195 418,-143 16,-143"/>
</g>
<!-- ReservationComponent -->
<g id="node1" class="node">
<title>ReservationComponent</title>
<polygon fill="#ffffb3" stroke="black" points="588.2,-187 439.8,-187 439.8,-151 588.2,-151 588.2,-187"/>
<text text-anchor="middle" x="514" y="-164.8" font-family="Times,serif" font-size="14.00">ReservationComponent</text>
</g>
<!-- ReservationModule -->
<g id="node4" class="node">
<title>ReservationModule</title>
<polygon fill="#8dd3c7" stroke="black" points="479.42,-252 476.42,-256 455.42,-256 452.42,-252 352.58,-252 352.58,-216 479.42,-216 479.42,-252"/>
<text text-anchor="middle" x="416" y="-229.8" font-family="Times,serif" font-size="14.00">ReservationModule</text>
</g>
<!-- ReservationComponent&#45;&gt;ReservationModule -->
<g id="edge1" class="edge">
<title>ReservationComponent&#45;&gt;ReservationModule</title>
<path fill="none" stroke="black" d="M459.55,-187.11C459.55,-187.11 459.55,-205.99 459.55,-205.99"/>
<polygon fill="black" stroke="black" points="456.05,-205.99 459.55,-215.99 463.05,-205.99 456.05,-205.99"/>
</g>
<!-- ReservationDetailComponent -->
<g id="node2" class="node">
<title>ReservationDetailComponent</title>
<polygon fill="#ffffb3" stroke="black" points="410.41,-187 227.59,-187 227.59,-151 410.41,-151 410.41,-187"/>
<text text-anchor="middle" x="319" y="-164.8" font-family="Times,serif" font-size="14.00">ReservationDetailComponent</text>
</g>
<!-- ReservationDetailComponent&#45;&gt;ReservationModule -->
<g id="edge3" class="edge">
<title>ReservationDetailComponent&#45;&gt;ReservationModule</title>
<path fill="none" stroke="black" d="M381.5,-187.11C381.5,-187.11 381.5,-205.99 381.5,-205.99"/>
<polygon fill="black" stroke="black" points="378,-205.99 381.5,-215.99 385,-205.99 378,-205.99"/>
</g>
<!-- ReservationSearchComponent -->
<g id="node3" class="node">
<title>ReservationSearchComponent</title>
<polygon fill="#ffffb3" stroke="black" points="210.29,-187 23.71,-187 23.71,-151 210.29,-151 210.29,-187"/>
<text text-anchor="middle" x="117" y="-164.8" font-family="Times,serif" font-size="14.00">ReservationSearchComponent</text>
</g>
<!-- ReservationSearchComponent&#45;&gt;ReservationModule -->
<g id="edge4" class="edge">
<title>ReservationSearchComponent&#45;&gt;ReservationModule</title>
<path fill="none" stroke="black" d="M117,-187.11C117,-206.34 117,-234 117,-234 117,-234 342.59,-234 342.59,-234"/>
<polygon fill="black" stroke="black" points="342.59,-237.5 352.59,-234 342.59,-230.5 342.59,-237.5"/>
</g>
<!-- ReservationService -->
<g id="node5" class="node">
<title>ReservationService</title>
<ellipse fill="#fdb462" stroke="black" cx="520" cy="-104" rx="86.23" ry="18"/>
<text text-anchor="middle" x="520" y="-99.8" font-family="Times,serif" font-size="14.00">ReservationService</text>
</g>
<!-- ReservationService&#45;&gt;ReservationComponent -->
<g id="edge2" class="edge">
<title>ReservationService&#45;&gt;ReservationComponent</title>
<path fill="none" stroke="black" d="M514,-122.11C514,-122.11 514,-140.99 514,-140.99"/>
<polygon fill="black" stroke="black" points="510.5,-140.99 514,-150.99 517.5,-140.99 510.5,-140.99"/>
</g>
<!-- DashboardModule -->
<g id="node6" class="node">
<title>DashboardModule</title>
<polygon fill="#8dd3c7" stroke="black" points="750.19,-187 747.19,-191 726.19,-191 723.19,-187 629.81,-187 629.81,-151 750.19,-151 750.19,-187"/>
<text text-anchor="middle" x="690" y="-164.8" font-family="Times,serif" font-size="14.00">DashboardModule</text>
</g>
<!-- DashboardModule&#45;&gt;ReservationModule -->
<g id="edge5" class="edge">
<title>DashboardModule&#45;&gt;ReservationModule</title>
<path fill="none" stroke="black" d="M690,-187.11C690,-206.34 690,-234 690,-234 690,-234 489.55,-234 489.55,-234"/>
<polygon fill="black" stroke="black" points="489.55,-230.5 479.55,-234 489.55,-237.5 489.55,-230.5"/>
</g>
</g>
</svg>
