<?xml version="1.0" encoding="utf-8"?>
<svg xmlns="http://www.w3.org/2000/svg" xmlns:xlink="http://www.w3.org/1999/xlink" xml:space="preserve" width="1076.25" height="1345.3125" viewBox="0 0 1076.25 1345.3125"><rect width="996.428125" height="996.428125" fill="#03b7d5" x="44.84375" y="313.90625"/><g transform="scale(44.84375)" fill="#000000"><path d="M22.7,6L1.3,6C0.6,6,0,6.6,0,7.3l0,21.3C0,29.4,0.6,30,1.3,30l21.3,0c0.7,0,1.3-0.6,1.3-1.3l0-21.3 C24,6.6,23.4,6,22.7,6z M23,28c0,0.6-0.5,1-1,1L2,29c-0.6,0-1-0.5-1-1V8c0-0.6,0.5-1,1-1l20,0c0.6,0,1,0.5,1,1V28z"/><path d="M23,0H1C0.4,0,0,0.4,0,1v3c0,0.5,0.4,1,1,1h10l1,1l1-1h10c0.5,0,1-0.4,1-1V1C24,0.4,23.6,0,23,0z"/></g><g transform="translate(0,269.0625)" fill="#000000">
<g transform="translate(296.625,107.625) scale(3.605)"><rect width="6" height="6"/></g>
<g transform="translate(338.625,107.625) scale(3.605)"><rect width="6" height="6"/></g>
<g transform="translate(380.625,107.625) scale(3.605)"><rect width="6" height="6"/></g>
<g transform="translate(422.625,107.625) scale(3.605)"><rect width="6" height="6"/></g>
<g transform="translate(443.625,107.625) scale(3.605)"><rect width="6" height="6"/></g>
<g transform="translate(485.625,107.625) scale(3.605)"><rect width="6" height="6"/></g>
<g transform="translate(506.625,107.625) scale(3.605)"><rect width="6" height="6"/></g>
<g transform="translate(590.625,107.625) scale(3.605)"><rect width="6" height="6"/></g>
<g transform="translate(611.625,107.625) scale(3.605)"><rect width="6" height="6"/></g>
<g transform="translate(716.625,107.625) scale(3.605)"><rect width="6" height="6"/></g>
<g transform="translate(737.625,107.625) scale(3.605)"><rect width="6" height="6"/></g>
<g transform="translate(758.625,107.625) scale(3.605)"><rect width="6" height="6"/></g>
<g transform="translate(296.625,128.625) scale(3.605)"><rect width="6" height="6"/></g>
<g transform="translate(317.625,128.625) scale(3.605)"><rect width="6" height="6"/></g>
<g transform="translate(359.625,128.625) scale(3.605)"><rect width="6" height="6"/></g>
<g transform="translate(401.625,128.625) scale(3.605)"><rect width="6" height="6"/></g>
<g transform="translate(485.625,128.625) scale(3.605)"><rect width="6" height="6"/></g>
<g transform="translate(506.625,128.625) scale(3.605)"><rect width="6" height="6"/></g>
<g transform="translate(527.625,128.625) scale(3.605)"><rect width="6" height="6"/></g>
<g transform="translate(569.625,128.625) scale(3.605)"><rect width="6" height="6"/></g>
<g transform="translate(590.625,128.625) scale(3.605)"><rect width="6" height="6"/></g>
<g transform="translate(611.625,128.625) scale(3.605)"><rect width="6" height="6"/></g>
<g transform="translate(674.625,128.625) scale(3.605)"><rect width="6" height="6"/></g>
<g transform="translate(695.625,128.625) scale(3.605)"><rect width="6" height="6"/></g>
<g transform="translate(716.625,128.625) scale(3.605)"><rect width="6" height="6"/></g>
<g transform="translate(758.625,128.625) scale(3.605)"><rect width="6" height="6"/></g>
<g transform="translate(779.625,128.625) scale(3.605)"><rect width="6" height="6"/></g>
<g transform="translate(275.625,149.625) scale(3.605)"><rect width="6" height="6"/></g>
<g transform="translate(296.625,149.625) scale(3.605)"><rect width="6" height="6"/></g>
<g transform="translate(317.625,149.625) scale(3.605)"><rect width="6" height="6"/></g>
<g transform="translate(338.625,149.625) scale(3.605)"><rect width="6" height="6"/></g>
<g transform="translate(401.625,149.625) scale(3.605)"><rect width="6" height="6"/></g>
<g transform="translate(422.625,149.625) scale(3.605)"><rect width="6" height="6"/></g>
<g transform="translate(527.625,149.625) scale(3.605)"><rect width="6" height="6"/></g>
<g transform="translate(653.625,149.625) scale(3.605)"><rect width="6" height="6"/></g>
<g transform="translate(674.625,149.625) scale(3.605)"><rect width="6" height="6"/></g>
<g transform="translate(695.625,149.625) scale(3.605)"><rect width="6" height="6"/></g>
<g transform="translate(716.625,149.625) scale(3.605)"><rect width="6" height="6"/></g>
<g transform="translate(737.625,149.625) scale(3.605)"><rect width="6" height="6"/></g>
<g transform="translate(779.625,149.625) scale(3.605)"><rect width="6" height="6"/></g>
<g transform="translate(275.625,170.625) scale(3.605)"><rect width="6" height="6"/></g>
<g transform="translate(338.625,170.625) scale(3.605)"><rect width="6" height="6"/></g>
<g transform="translate(380.625,170.625) scale(3.605)"><rect width="6" height="6"/></g>
<g transform="translate(422.625,170.625) scale(3.605)"><rect width="6" height="6"/></g>
<g transform="translate(443.625,170.625) scale(3.605)"><rect width="6" height="6"/></g>
<g transform="translate(485.625,170.625) scale(3.605)"><rect width="6" height="6"/></g>
<g transform="translate(548.625,170.625) scale(3.605)"><rect width="6" height="6"/></g>
<g transform="translate(569.625,170.625) scale(3.605)"><rect width="6" height="6"/></g>
<g transform="translate(590.625,170.625) scale(3.605)"><rect width="6" height="6"/></g>
<g transform="translate(611.625,170.625) scale(3.605)"><rect width="6" height="6"/></g>
<g transform="translate(695.625,170.625) scale(3.605)"><rect width="6" height="6"/></g>
<g transform="translate(275.625,191.625) scale(3.605)"><rect width="6" height="6"/></g>
<g transform="translate(338.625,191.625) scale(3.605)"><rect width="6" height="6"/></g>
<g transform="translate(359.625,191.625) scale(3.605)"><rect width="6" height="6"/></g>
<g transform="translate(401.625,191.625) scale(3.605)"><rect width="6" height="6"/></g>
<g transform="translate(443.625,191.625) scale(3.605)"><rect width="6" height="6"/></g>
<g transform="translate(464.625,191.625) scale(3.605)"><rect width="6" height="6"/></g>
<g transform="translate(548.625,191.625) scale(3.605)"><rect width="6" height="6"/></g>
<g transform="translate(590.625,191.625) scale(3.605)"><rect width="6" height="6"/></g>
<g transform="translate(653.625,191.625) scale(3.605)"><rect width="6" height="6"/></g>
<g transform="translate(674.625,191.625) scale(3.605)"><rect width="6" height="6"/></g>
<g transform="translate(695.625,191.625) scale(3.605)"><rect width="6" height="6"/></g>
<g transform="translate(716.625,191.625) scale(3.605)"><rect width="6" height="6"/></g>
<g transform="translate(737.625,191.625) scale(3.605)"><rect width="6" height="6"/></g>
<g transform="translate(779.625,191.625) scale(3.605)"><rect width="6" height="6"/></g>
<g transform="translate(275.625,212.625) scale(3.605)"><rect width="6" height="6"/></g>
<g transform="translate(359.625,212.625) scale(3.605)"><rect width="6" height="6"/></g>
<g transform="translate(380.625,212.625) scale(3.605)"><rect width="6" height="6"/></g>
<g transform="translate(401.625,212.625) scale(3.605)"><rect width="6" height="6"/></g>
<g transform="translate(422.625,212.625) scale(3.605)"><rect width="6" height="6"/></g>
<g transform="translate(443.625,212.625) scale(3.605)"><rect width="6" height="6"/></g>
<g transform="translate(464.625,212.625) scale(3.605)"><rect width="6" height="6"/></g>
<g transform="translate(611.625,212.625) scale(3.605)"><rect width="6" height="6"/></g>
<g transform="translate(653.625,212.625) scale(3.605)"><rect width="6" height="6"/></g>
<g transform="translate(674.625,212.625) scale(3.605)"><rect width="6" height="6"/></g>
<g transform="translate(716.625,212.625) scale(3.605)"><rect width="6" height="6"/></g>
<g transform="translate(275.625,233.625) scale(3.605)"><rect width="6" height="6"/></g>
<g transform="translate(317.625,233.625) scale(3.605)"><rect width="6" height="6"/></g>
<g transform="translate(359.625,233.625) scale(3.605)"><rect width="6" height="6"/></g>
<g transform="translate(401.625,233.625) scale(3.605)"><rect width="6" height="6"/></g>
<g transform="translate(443.625,233.625) scale(3.605)"><rect width="6" height="6"/></g>
<g transform="translate(485.625,233.625) scale(3.605)"><rect width="6" height="6"/></g>
<g transform="translate(527.625,233.625) scale(3.605)"><rect width="6" height="6"/></g>
<g transform="translate(569.625,233.625) scale(3.605)"><rect width="6" height="6"/></g>
<g transform="translate(611.625,233.625) scale(3.605)"><rect width="6" height="6"/></g>
<g transform="translate(653.625,233.625) scale(3.605)"><rect width="6" height="6"/></g>
<g transform="translate(695.625,233.625) scale(3.605)"><rect width="6" height="6"/></g>
<g transform="translate(737.625,233.625) scale(3.605)"><rect width="6" height="6"/></g>
<g transform="translate(779.625,233.625) scale(3.605)"><rect width="6" height="6"/></g>
<g transform="translate(275.625,254.625) scale(3.605)"><rect width="6" height="6"/></g>
<g transform="translate(338.625,254.625) scale(3.605)"><rect width="6" height="6"/></g>
<g transform="translate(380.625,254.625) scale(3.605)"><rect width="6" height="6"/></g>
<g transform="translate(422.625,254.625) scale(3.605)"><rect width="6" height="6"/></g>
<g transform="translate(527.625,254.625) scale(3.605)"><rect width="6" height="6"/></g>
<g transform="translate(548.625,254.625) scale(3.605)"><rect width="6" height="6"/></g>
<g transform="translate(569.625,254.625) scale(3.605)"><rect width="6" height="6"/></g>
<g transform="translate(611.625,254.625) scale(3.605)"><rect width="6" height="6"/></g>
<g transform="translate(653.625,254.625) scale(3.605)"><rect width="6" height="6"/></g>
<g transform="translate(695.625,254.625) scale(3.605)"><rect width="6" height="6"/></g>
<g transform="translate(107.625,275.625) scale(3.605)"><rect width="6" height="6"/></g>
<g transform="translate(149.625,275.625) scale(3.605)"><rect width="6" height="6"/></g>
<g transform="translate(170.625,275.625) scale(3.605)"><rect width="6" height="6"/></g>
<g transform="translate(191.625,275.625) scale(3.605)"><rect width="6" height="6"/></g>
<g transform="translate(212.625,275.625) scale(3.605)"><rect width="6" height="6"/></g>
<g transform="translate(233.625,275.625) scale(3.605)"><rect width="6" height="6"/></g>
<g transform="translate(296.625,275.625) scale(3.605)"><rect width="6" height="6"/></g>
<g transform="translate(359.625,275.625) scale(3.605)"><rect width="6" height="6"/></g>
<g transform="translate(380.625,275.625) scale(3.605)"><rect width="6" height="6"/></g>
<g transform="translate(401.625,275.625) scale(3.605)"><rect width="6" height="6"/></g>
<g transform="translate(422.625,275.625) scale(3.605)"><rect width="6" height="6"/></g>
<g transform="translate(464.625,275.625) scale(3.605)"><rect width="6" height="6"/></g>
<g transform="translate(569.625,275.625) scale(3.605)"><rect width="6" height="6"/></g>
<g transform="translate(611.625,275.625) scale(3.605)"><rect width="6" height="6"/></g>
<g transform="translate(632.625,275.625) scale(3.605)"><rect width="6" height="6"/></g>
<g transform="translate(653.625,275.625) scale(3.605)"><rect width="6" height="6"/></g>
<g transform="translate(674.625,275.625) scale(3.605)"><rect width="6" height="6"/></g>
<g transform="translate(716.625,275.625) scale(3.605)"><rect width="6" height="6"/></g>
<g transform="translate(758.625,275.625) scale(3.605)"><rect width="6" height="6"/></g>
<g transform="translate(821.625,275.625) scale(3.605)"><rect width="6" height="6"/></g>
<g transform="translate(842.625,275.625) scale(3.605)"><rect width="6" height="6"/></g>
<g transform="translate(863.625,275.625) scale(3.605)"><rect width="6" height="6"/></g>
<g transform="translate(884.625,275.625) scale(3.605)"><rect width="6" height="6"/></g>
<g transform="translate(905.625,275.625) scale(3.605)"><rect width="6" height="6"/></g>
<g transform="translate(149.625,296.625) scale(3.605)"><rect width="6" height="6"/></g>
<g transform="translate(170.625,296.625) scale(3.605)"><rect width="6" height="6"/></g>
<g transform="translate(191.625,296.625) scale(3.605)"><rect width="6" height="6"/></g>
<g transform="translate(275.625,296.625) scale(3.605)"><rect width="6" height="6"/></g>
<g transform="translate(317.625,296.625) scale(3.605)"><rect width="6" height="6"/></g>
<g transform="translate(338.625,296.625) scale(3.605)"><rect width="6" height="6"/></g>
<g transform="translate(359.625,296.625) scale(3.605)"><rect width="6" height="6"/></g>
<g transform="translate(380.625,296.625) scale(3.605)"><rect width="6" height="6"/></g>
<g transform="translate(401.625,296.625) scale(3.605)"><rect width="6" height="6"/></g>
<g transform="translate(506.625,296.625) scale(3.605)"><rect width="6" height="6"/></g>
<g transform="translate(548.625,296.625) scale(3.605)"><rect width="6" height="6"/></g>
<g transform="translate(590.625,296.625) scale(3.605)"><rect width="6" height="6"/></g>
<g transform="translate(632.625,296.625) scale(3.605)"><rect width="6" height="6"/></g>
<g transform="translate(695.625,296.625) scale(3.605)"><rect width="6" height="6"/></g>
<g transform="translate(758.625,296.625) scale(3.605)"><rect width="6" height="6"/></g>
<g transform="translate(779.625,296.625) scale(3.605)"><rect width="6" height="6"/></g>
<g transform="translate(800.625,296.625) scale(3.605)"><rect width="6" height="6"/></g>
<g transform="translate(821.625,296.625) scale(3.605)"><rect width="6" height="6"/></g>
<g transform="translate(905.625,296.625) scale(3.605)"><rect width="6" height="6"/></g>
<g transform="translate(926.625,296.625) scale(3.605)"><rect width="6" height="6"/></g>
<g transform="translate(947.625,296.625) scale(3.605)"><rect width="6" height="6"/></g>
<g transform="translate(170.625,317.625) scale(3.605)"><rect width="6" height="6"/></g>
<g transform="translate(191.625,317.625) scale(3.605)"><rect width="6" height="6"/></g>
<g transform="translate(212.625,317.625) scale(3.605)"><rect width="6" height="6"/></g>
<g transform="translate(233.625,317.625) scale(3.605)"><rect width="6" height="6"/></g>
<g transform="translate(254.625,317.625) scale(3.605)"><rect width="6" height="6"/></g>
<g transform="translate(296.625,317.625) scale(3.605)"><rect width="6" height="6"/></g>
<g transform="translate(359.625,317.625) scale(3.605)"><rect width="6" height="6"/></g>
<g transform="translate(380.625,317.625) scale(3.605)"><rect width="6" height="6"/></g>
<g transform="translate(464.625,317.625) scale(3.605)"><rect width="6" height="6"/></g>
<g transform="translate(485.625,317.625) scale(3.605)"><rect width="6" height="6"/></g>
<g transform="translate(527.625,317.625) scale(3.605)"><rect width="6" height="6"/></g>
<g transform="translate(569.625,317.625) scale(3.605)"><rect width="6" height="6"/></g>
<g transform="translate(674.625,317.625) scale(3.605)"><rect width="6" height="6"/></g>
<g transform="translate(737.625,317.625) scale(3.605)"><rect width="6" height="6"/></g>
<g transform="translate(779.625,317.625) scale(3.605)"><rect width="6" height="6"/></g>
<g transform="translate(821.625,317.625) scale(3.605)"><rect width="6" height="6"/></g>
<g transform="translate(842.625,317.625) scale(3.605)"><rect width="6" height="6"/></g>
<g transform="translate(863.625,317.625) scale(3.605)"><rect width="6" height="6"/></g>
<g transform="translate(107.625,338.625) scale(3.605)"><rect width="6" height="6"/></g>
<g transform="translate(128.625,338.625) scale(3.605)"><rect width="6" height="6"/></g>
<g transform="translate(149.625,338.625) scale(3.605)"><rect width="6" height="6"/></g>
<g transform="translate(212.625,338.625) scale(3.605)"><rect width="6" height="6"/></g>
<g transform="translate(275.625,338.625) scale(3.605)"><rect width="6" height="6"/></g>
<g transform="translate(422.625,338.625) scale(3.605)"><rect width="6" height="6"/></g>
<g transform="translate(443.625,338.625) scale(3.605)"><rect width="6" height="6"/></g>
<g transform="translate(506.625,338.625) scale(3.605)"><rect width="6" height="6"/></g>
<g transform="translate(527.625,338.625) scale(3.605)"><rect width="6" height="6"/></g>
<g transform="translate(569.625,338.625) scale(3.605)"><rect width="6" height="6"/></g>
<g transform="translate(611.625,338.625) scale(3.605)"><rect width="6" height="6"/></g>
<g transform="translate(653.625,338.625) scale(3.605)"><rect width="6" height="6"/></g>
<g transform="translate(695.625,338.625) scale(3.605)"><rect width="6" height="6"/></g>
<g transform="translate(758.625,338.625) scale(3.605)"><rect width="6" height="6"/></g>
<g transform="translate(779.625,338.625) scale(3.605)"><rect width="6" height="6"/></g>
<g transform="translate(800.625,338.625) scale(3.605)"><rect width="6" height="6"/></g>
<g transform="translate(821.625,338.625) scale(3.605)"><rect width="6" height="6"/></g>
<g transform="translate(842.625,338.625) scale(3.605)"><rect width="6" height="6"/></g>
<g transform="translate(863.625,338.625) scale(3.605)"><rect width="6" height="6"/></g>
<g transform="translate(884.625,338.625) scale(3.605)"><rect width="6" height="6"/></g>
<g transform="translate(926.625,338.625) scale(3.605)"><rect width="6" height="6"/></g>
<g transform="translate(947.625,338.625) scale(3.605)"><rect width="6" height="6"/></g>
<g transform="translate(128.625,359.625) scale(3.605)"><rect width="6" height="6"/></g>
<g transform="translate(170.625,359.625) scale(3.605)"><rect width="6" height="6"/></g>
<g transform="translate(191.625,359.625) scale(3.605)"><rect width="6" height="6"/></g>
<g transform="translate(212.625,359.625) scale(3.605)"><rect width="6" height="6"/></g>
<g transform="translate(233.625,359.625) scale(3.605)"><rect width="6" height="6"/></g>
<g transform="translate(275.625,359.625) scale(3.605)"><rect width="6" height="6"/></g>
<g transform="translate(317.625,359.625) scale(3.605)"><rect width="6" height="6"/></g>
<g transform="translate(338.625,359.625) scale(3.605)"><rect width="6" height="6"/></g>
<g transform="translate(359.625,359.625) scale(3.605)"><rect width="6" height="6"/></g>
<g transform="translate(422.625,359.625) scale(3.605)"><rect width="6" height="6"/></g>
<g transform="translate(464.625,359.625) scale(3.605)"><rect width="6" height="6"/></g>
<g transform="translate(506.625,359.625) scale(3.605)"><rect width="6" height="6"/></g>
<g transform="translate(548.625,359.625) scale(3.605)"><rect width="6" height="6"/></g>
<g transform="translate(653.625,359.625) scale(3.605)"><rect width="6" height="6"/></g>
<g transform="translate(674.625,359.625) scale(3.605)"><rect width="6" height="6"/></g>
<g transform="translate(716.625,359.625) scale(3.605)"><rect width="6" height="6"/></g>
<g transform="translate(758.625,359.625) scale(3.605)"><rect width="6" height="6"/></g>
<g transform="translate(779.625,359.625) scale(3.605)"><rect width="6" height="6"/></g>
<g transform="translate(884.625,359.625) scale(3.605)"><rect width="6" height="6"/></g>
<g transform="translate(905.625,359.625) scale(3.605)"><rect width="6" height="6"/></g>
<g transform="translate(947.625,359.625) scale(3.605)"><rect width="6" height="6"/></g>
<g transform="translate(107.625,380.625) scale(3.605)"><rect width="6" height="6"/></g>
<g transform="translate(128.625,380.625) scale(3.605)"><rect width="6" height="6"/></g>
<g transform="translate(149.625,380.625) scale(3.605)"><rect width="6" height="6"/></g>
<g transform="translate(170.625,380.625) scale(3.605)"><rect width="6" height="6"/></g>
<g transform="translate(191.625,380.625) scale(3.605)"><rect width="6" height="6"/></g>
<g transform="translate(254.625,380.625) scale(3.605)"><rect width="6" height="6"/></g>
<g transform="translate(317.625,380.625) scale(3.605)"><rect width="6" height="6"/></g>
<g transform="translate(401.625,380.625) scale(3.605)"><rect width="6" height="6"/></g>
<g transform="translate(422.625,380.625) scale(3.605)"><rect width="6" height="6"/></g>
<g transform="translate(464.625,380.625) scale(3.605)"><rect width="6" height="6"/></g>
<g transform="translate(527.625,380.625) scale(3.605)"><rect width="6" height="6"/></g>
<g transform="translate(548.625,380.625) scale(3.605)"><rect width="6" height="6"/></g>
<g transform="translate(569.625,380.625) scale(3.605)"><rect width="6" height="6"/></g>
<g transform="translate(611.625,380.625) scale(3.605)"><rect width="6" height="6"/></g>
<g transform="translate(632.625,380.625) scale(3.605)"><rect width="6" height="6"/></g>
<g transform="translate(674.625,380.625) scale(3.605)"><rect width="6" height="6"/></g>
<g transform="translate(695.625,380.625) scale(3.605)"><rect width="6" height="6"/></g>
<g transform="translate(716.625,380.625) scale(3.605)"><rect width="6" height="6"/></g>
<g transform="translate(800.625,380.625) scale(3.605)"><rect width="6" height="6"/></g>
<g transform="translate(821.625,380.625) scale(3.605)"><rect width="6" height="6"/></g>
<g transform="translate(842.625,380.625) scale(3.605)"><rect width="6" height="6"/></g>
<g transform="translate(863.625,380.625) scale(3.605)"><rect width="6" height="6"/></g>
<g transform="translate(905.625,380.625) scale(3.605)"><rect width="6" height="6"/></g>
<g transform="translate(926.625,380.625) scale(3.605)"><rect width="6" height="6"/></g>
<g transform="translate(107.625,401.625) scale(3.605)"><rect width="6" height="6"/></g>
<g transform="translate(128.625,401.625) scale(3.605)"><rect width="6" height="6"/></g>
<g transform="translate(233.625,401.625) scale(3.605)"><rect width="6" height="6"/></g>
<g transform="translate(254.625,401.625) scale(3.605)"><rect width="6" height="6"/></g>
<g transform="translate(275.625,401.625) scale(3.605)"><rect width="6" height="6"/></g>
<g transform="translate(359.625,401.625) scale(3.605)"><rect width="6" height="6"/></g>
<g transform="translate(401.625,401.625) scale(3.605)"><rect width="6" height="6"/></g>
<g transform="translate(422.625,401.625) scale(3.605)"><rect width="6" height="6"/></g>
<g transform="translate(443.625,401.625) scale(3.605)"><rect width="6" height="6"/></g>
<g transform="translate(506.625,401.625) scale(3.605)"><rect width="6" height="6"/></g>
<g transform="translate(548.625,401.625) scale(3.605)"><rect width="6" height="6"/></g>
<g transform="translate(569.625,401.625) scale(3.605)"><rect width="6" height="6"/></g>
<g transform="translate(653.625,401.625) scale(3.605)"><rect width="6" height="6"/></g>
<g transform="translate(716.625,401.625) scale(3.605)"><rect width="6" height="6"/></g>
<g transform="translate(779.625,401.625) scale(3.605)"><rect width="6" height="6"/></g>
<g transform="translate(800.625,401.625) scale(3.605)"><rect width="6" height="6"/></g>
<g transform="translate(884.625,401.625) scale(3.605)"><rect width="6" height="6"/></g>
<g transform="translate(905.625,401.625) scale(3.605)"><rect width="6" height="6"/></g>
<g transform="translate(926.625,401.625) scale(3.605)"><rect width="6" height="6"/></g>
<g transform="translate(947.625,401.625) scale(3.605)"><rect width="6" height="6"/></g>
<g transform="translate(254.625,422.625) scale(3.605)"><rect width="6" height="6"/></g>
<g transform="translate(296.625,422.625) scale(3.605)"><rect width="6" height="6"/></g>
<g transform="translate(317.625,422.625) scale(3.605)"><rect width="6" height="6"/></g>
<g transform="translate(380.625,422.625) scale(3.605)"><rect width="6" height="6"/></g>
<g transform="translate(401.625,422.625) scale(3.605)"><rect width="6" height="6"/></g>
<g transform="translate(464.625,422.625) scale(3.605)"><rect width="6" height="6"/></g>
<g transform="translate(485.625,422.625) scale(3.605)"><rect width="6" height="6"/></g>
<g transform="translate(506.625,422.625) scale(3.605)"><rect width="6" height="6"/></g>
<g transform="translate(527.625,422.625) scale(3.605)"><rect width="6" height="6"/></g>
<g transform="translate(569.625,422.625) scale(3.605)"><rect width="6" height="6"/></g>
<g transform="translate(611.625,422.625) scale(3.605)"><rect width="6" height="6"/></g>
<g transform="translate(632.625,422.625) scale(3.605)"><rect width="6" height="6"/></g>
<g transform="translate(695.625,422.625) scale(3.605)"><rect width="6" height="6"/></g>
<g transform="translate(716.625,422.625) scale(3.605)"><rect width="6" height="6"/></g>
<g transform="translate(737.625,422.625) scale(3.605)"><rect width="6" height="6"/></g>
<g transform="translate(821.625,422.625) scale(3.605)"><rect width="6" height="6"/></g>
<g transform="translate(842.625,422.625) scale(3.605)"><rect width="6" height="6"/></g>
<g transform="translate(884.625,422.625) scale(3.605)"><rect width="6" height="6"/></g>
<g transform="translate(926.625,422.625) scale(3.605)"><rect width="6" height="6"/></g>
<g transform="translate(947.625,422.625) scale(3.605)"><rect width="6" height="6"/></g>
<g transform="translate(128.625,443.625) scale(3.605)"><rect width="6" height="6"/></g>
<g transform="translate(191.625,443.625) scale(3.605)"><rect width="6" height="6"/></g>
<g transform="translate(212.625,443.625) scale(3.605)"><rect width="6" height="6"/></g>
<g transform="translate(233.625,443.625) scale(3.605)"><rect width="6" height="6"/></g>
<g transform="translate(275.625,443.625) scale(3.605)"><rect width="6" height="6"/></g>
<g transform="translate(317.625,443.625) scale(3.605)"><rect width="6" height="6"/></g>
<g transform="translate(338.625,443.625) scale(3.605)"><rect width="6" height="6"/></g>
<g transform="translate(401.625,443.625) scale(3.605)"><rect width="6" height="6"/></g>
<g transform="translate(443.625,443.625) scale(3.605)"><rect width="6" height="6"/></g>
<g transform="translate(506.625,443.625) scale(3.605)"><rect width="6" height="6"/></g>
<g transform="translate(611.625,443.625) scale(3.605)"><rect width="6" height="6"/></g>
<g transform="translate(632.625,443.625) scale(3.605)"><rect width="6" height="6"/></g>
<g transform="translate(800.625,443.625) scale(3.605)"><rect width="6" height="6"/></g>
<g transform="translate(842.625,443.625) scale(3.605)"><rect width="6" height="6"/></g>
<g transform="translate(884.625,443.625) scale(3.605)"><rect width="6" height="6"/></g>
<g transform="translate(926.625,443.625) scale(3.605)"><rect width="6" height="6"/></g>
<g transform="translate(107.625,464.625) scale(3.605)"><rect width="6" height="6"/></g>
<g transform="translate(149.625,464.625) scale(3.605)"><rect width="6" height="6"/></g>
<g transform="translate(170.625,464.625) scale(3.605)"><rect width="6" height="6"/></g>
<g transform="translate(254.625,464.625) scale(3.605)"><rect width="6" height="6"/></g>
<g transform="translate(338.625,464.625) scale(3.605)"><rect width="6" height="6"/></g>
<g transform="translate(401.625,464.625) scale(3.605)"><rect width="6" height="6"/></g>
<g transform="translate(422.625,464.625) scale(3.605)"><rect width="6" height="6"/></g>
<g transform="translate(464.625,464.625) scale(3.605)"><rect width="6" height="6"/></g>
<g transform="translate(485.625,464.625) scale(3.605)"><rect width="6" height="6"/></g>
<g transform="translate(527.625,464.625) scale(3.605)"><rect width="6" height="6"/></g>
<g transform="translate(548.625,464.625) scale(3.605)"><rect width="6" height="6"/></g>
<g transform="translate(632.625,464.625) scale(3.605)"><rect width="6" height="6"/></g>
<g transform="translate(674.625,464.625) scale(3.605)"><rect width="6" height="6"/></g>
<g transform="translate(695.625,464.625) scale(3.605)"><rect width="6" height="6"/></g>
<g transform="translate(737.625,464.625) scale(3.605)"><rect width="6" height="6"/></g>
<g transform="translate(758.625,464.625) scale(3.605)"><rect width="6" height="6"/></g>
<g transform="translate(779.625,464.625) scale(3.605)"><rect width="6" height="6"/></g>
<g transform="translate(821.625,464.625) scale(3.605)"><rect width="6" height="6"/></g>
<g transform="translate(842.625,464.625) scale(3.605)"><rect width="6" height="6"/></g>
<g transform="translate(863.625,464.625) scale(3.605)"><rect width="6" height="6"/></g>
<g transform="translate(926.625,464.625) scale(3.605)"><rect width="6" height="6"/></g>
<g transform="translate(947.625,464.625) scale(3.605)"><rect width="6" height="6"/></g>
<g transform="translate(128.625,485.625) scale(3.605)"><rect width="6" height="6"/></g>
<g transform="translate(149.625,485.625) scale(3.605)"><rect width="6" height="6"/></g>
<g transform="translate(233.625,485.625) scale(3.605)"><rect width="6" height="6"/></g>
<g transform="translate(254.625,485.625) scale(3.605)"><rect width="6" height="6"/></g>
<g transform="translate(275.625,485.625) scale(3.605)"><rect width="6" height="6"/></g>
<g transform="translate(296.625,485.625) scale(3.605)"><rect width="6" height="6"/></g>
<g transform="translate(317.625,485.625) scale(3.605)"><rect width="6" height="6"/></g>
<g transform="translate(338.625,485.625) scale(3.605)"><rect width="6" height="6"/></g>
<g transform="translate(359.625,485.625) scale(3.605)"><rect width="6" height="6"/></g>
<g transform="translate(401.625,485.625) scale(3.605)"><rect width="6" height="6"/></g>
<g transform="translate(464.625,485.625) scale(3.605)"><rect width="6" height="6"/></g>
<g transform="translate(506.625,485.625) scale(3.605)"><rect width="6" height="6"/></g>
<g transform="translate(527.625,485.625) scale(3.605)"><rect width="6" height="6"/></g>
<g transform="translate(548.625,485.625) scale(3.605)"><rect width="6" height="6"/></g>
<g transform="translate(590.625,485.625) scale(3.605)"><rect width="6" height="6"/></g>
<g transform="translate(632.625,485.625) scale(3.605)"><rect width="6" height="6"/></g>
<g transform="translate(653.625,485.625) scale(3.605)"><rect width="6" height="6"/></g>
<g transform="translate(674.625,485.625) scale(3.605)"><rect width="6" height="6"/></g>
<g transform="translate(737.625,485.625) scale(3.605)"><rect width="6" height="6"/></g>
<g transform="translate(863.625,485.625) scale(3.605)"><rect width="6" height="6"/></g>
<g transform="translate(884.625,485.625) scale(3.605)"><rect width="6" height="6"/></g>
<g transform="translate(905.625,485.625) scale(3.605)"><rect width="6" height="6"/></g>
<g transform="translate(128.625,506.625) scale(3.605)"><rect width="6" height="6"/></g>
<g transform="translate(149.625,506.625) scale(3.605)"><rect width="6" height="6"/></g>
<g transform="translate(170.625,506.625) scale(3.605)"><rect width="6" height="6"/></g>
<g transform="translate(212.625,506.625) scale(3.605)"><rect width="6" height="6"/></g>
<g transform="translate(254.625,506.625) scale(3.605)"><rect width="6" height="6"/></g>
<g transform="translate(275.625,506.625) scale(3.605)"><rect width="6" height="6"/></g>
<g transform="translate(296.625,506.625) scale(3.605)"><rect width="6" height="6"/></g>
<g transform="translate(359.625,506.625) scale(3.605)"><rect width="6" height="6"/></g>
<g transform="translate(401.625,506.625) scale(3.605)"><rect width="6" height="6"/></g>
<g transform="translate(422.625,506.625) scale(3.605)"><rect width="6" height="6"/></g>
<g transform="translate(443.625,506.625) scale(3.605)"><rect width="6" height="6"/></g>
<g transform="translate(464.625,506.625) scale(3.605)"><rect width="6" height="6"/></g>
<g transform="translate(485.625,506.625) scale(3.605)"><rect width="6" height="6"/></g>
<g transform="translate(527.625,506.625) scale(3.605)"><rect width="6" height="6"/></g>
<g transform="translate(548.625,506.625) scale(3.605)"><rect width="6" height="6"/></g>
<g transform="translate(569.625,506.625) scale(3.605)"><rect width="6" height="6"/></g>
<g transform="translate(632.625,506.625) scale(3.605)"><rect width="6" height="6"/></g>
<g transform="translate(674.625,506.625) scale(3.605)"><rect width="6" height="6"/></g>
<g transform="translate(695.625,506.625) scale(3.605)"><rect width="6" height="6"/></g>
<g transform="translate(779.625,506.625) scale(3.605)"><rect width="6" height="6"/></g>
<g transform="translate(863.625,506.625) scale(3.605)"><rect width="6" height="6"/></g>
<g transform="translate(884.625,506.625) scale(3.605)"><rect width="6" height="6"/></g>
<g transform="translate(905.625,506.625) scale(3.605)"><rect width="6" height="6"/></g>
<g transform="translate(926.625,506.625) scale(3.605)"><rect width="6" height="6"/></g>
<g transform="translate(149.625,527.625) scale(3.605)"><rect width="6" height="6"/></g>
<g transform="translate(191.625,527.625) scale(3.605)"><rect width="6" height="6"/></g>
<g transform="translate(233.625,527.625) scale(3.605)"><rect width="6" height="6"/></g>
<g transform="translate(254.625,527.625) scale(3.605)"><rect width="6" height="6"/></g>
<g transform="translate(296.625,527.625) scale(3.605)"><rect width="6" height="6"/></g>
<g transform="translate(380.625,527.625) scale(3.605)"><rect width="6" height="6"/></g>
<g transform="translate(443.625,527.625) scale(3.605)"><rect width="6" height="6"/></g>
<g transform="translate(506.625,527.625) scale(3.605)"><rect width="6" height="6"/></g>
<g transform="translate(527.625,527.625) scale(3.605)"><rect width="6" height="6"/></g>
<g transform="translate(548.625,527.625) scale(3.605)"><rect width="6" height="6"/></g>
<g transform="translate(590.625,527.625) scale(3.605)"><rect width="6" height="6"/></g>
<g transform="translate(611.625,527.625) scale(3.605)"><rect width="6" height="6"/></g>
<g transform="translate(653.625,527.625) scale(3.605)"><rect width="6" height="6"/></g>
<g transform="translate(737.625,527.625) scale(3.605)"><rect width="6" height="6"/></g>
<g transform="translate(758.625,527.625) scale(3.605)"><rect width="6" height="6"/></g>
<g transform="translate(779.625,527.625) scale(3.605)"><rect width="6" height="6"/></g>
<g transform="translate(800.625,527.625) scale(3.605)"><rect width="6" height="6"/></g>
<g transform="translate(947.625,527.625) scale(3.605)"><rect width="6" height="6"/></g>
<g transform="translate(149.625,548.625) scale(3.605)"><rect width="6" height="6"/></g>
<g transform="translate(170.625,548.625) scale(3.605)"><rect width="6" height="6"/></g>
<g transform="translate(212.625,548.625) scale(3.605)"><rect width="6" height="6"/></g>
<g transform="translate(275.625,548.625) scale(3.605)"><rect width="6" height="6"/></g>
<g transform="translate(296.625,548.625) scale(3.605)"><rect width="6" height="6"/></g>
<g transform="translate(464.625,548.625) scale(3.605)"><rect width="6" height="6"/></g>
<g transform="translate(485.625,548.625) scale(3.605)"><rect width="6" height="6"/></g>
<g transform="translate(506.625,548.625) scale(3.605)"><rect width="6" height="6"/></g>
<g transform="translate(527.625,548.625) scale(3.605)"><rect width="6" height="6"/></g>
<g transform="translate(569.625,548.625) scale(3.605)"><rect width="6" height="6"/></g>
<g transform="translate(590.625,548.625) scale(3.605)"><rect width="6" height="6"/></g>
<g transform="translate(611.625,548.625) scale(3.605)"><rect width="6" height="6"/></g>
<g transform="translate(674.625,548.625) scale(3.605)"><rect width="6" height="6"/></g>
<g transform="translate(695.625,548.625) scale(3.605)"><rect width="6" height="6"/></g>
<g transform="translate(758.625,548.625) scale(3.605)"><rect width="6" height="6"/></g>
<g transform="translate(821.625,548.625) scale(3.605)"><rect width="6" height="6"/></g>
<g transform="translate(863.625,548.625) scale(3.605)"><rect width="6" height="6"/></g>
<g transform="translate(884.625,548.625) scale(3.605)"><rect width="6" height="6"/></g>
<g transform="translate(926.625,548.625) scale(3.605)"><rect width="6" height="6"/></g>
<g transform="translate(947.625,548.625) scale(3.605)"><rect width="6" height="6"/></g>
<g transform="translate(128.625,569.625) scale(3.605)"><rect width="6" height="6"/></g>
<g transform="translate(149.625,569.625) scale(3.605)"><rect width="6" height="6"/></g>
<g transform="translate(170.625,569.625) scale(3.605)"><rect width="6" height="6"/></g>
<g transform="translate(191.625,569.625) scale(3.605)"><rect width="6" height="6"/></g>
<g transform="translate(233.625,569.625) scale(3.605)"><rect width="6" height="6"/></g>
<g transform="translate(254.625,569.625) scale(3.605)"><rect width="6" height="6"/></g>
<g transform="translate(338.625,569.625) scale(3.605)"><rect width="6" height="6"/></g>
<g transform="translate(401.625,569.625) scale(3.605)"><rect width="6" height="6"/></g>
<g transform="translate(422.625,569.625) scale(3.605)"><rect width="6" height="6"/></g>
<g transform="translate(464.625,569.625) scale(3.605)"><rect width="6" height="6"/></g>
<g transform="translate(485.625,569.625) scale(3.605)"><rect width="6" height="6"/></g>
<g transform="translate(527.625,569.625) scale(3.605)"><rect width="6" height="6"/></g>
<g transform="translate(611.625,569.625) scale(3.605)"><rect width="6" height="6"/></g>
<g transform="translate(653.625,569.625) scale(3.605)"><rect width="6" height="6"/></g>
<g transform="translate(674.625,569.625) scale(3.605)"><rect width="6" height="6"/></g>
<g transform="translate(695.625,569.625) scale(3.605)"><rect width="6" height="6"/></g>
<g transform="translate(737.625,569.625) scale(3.605)"><rect width="6" height="6"/></g>
<g transform="translate(821.625,569.625) scale(3.605)"><rect width="6" height="6"/></g>
<g transform="translate(863.625,569.625) scale(3.605)"><rect width="6" height="6"/></g>
<g transform="translate(884.625,569.625) scale(3.605)"><rect width="6" height="6"/></g>
<g transform="translate(149.625,590.625) scale(3.605)"><rect width="6" height="6"/></g>
<g transform="translate(170.625,590.625) scale(3.605)"><rect width="6" height="6"/></g>
<g transform="translate(191.625,590.625) scale(3.605)"><rect width="6" height="6"/></g>
<g transform="translate(254.625,590.625) scale(3.605)"><rect width="6" height="6"/></g>
<g transform="translate(275.625,590.625) scale(3.605)"><rect width="6" height="6"/></g>
<g transform="translate(359.625,590.625) scale(3.605)"><rect width="6" height="6"/></g>
<g transform="translate(401.625,590.625) scale(3.605)"><rect width="6" height="6"/></g>
<g transform="translate(443.625,590.625) scale(3.605)"><rect width="6" height="6"/></g>
<g transform="translate(485.625,590.625) scale(3.605)"><rect width="6" height="6"/></g>
<g transform="translate(506.625,590.625) scale(3.605)"><rect width="6" height="6"/></g>
<g transform="translate(548.625,590.625) scale(3.605)"><rect width="6" height="6"/></g>
<g transform="translate(569.625,590.625) scale(3.605)"><rect width="6" height="6"/></g>
<g transform="translate(590.625,590.625) scale(3.605)"><rect width="6" height="6"/></g>
<g transform="translate(653.625,590.625) scale(3.605)"><rect width="6" height="6"/></g>
<g transform="translate(695.625,590.625) scale(3.605)"><rect width="6" height="6"/></g>
<g transform="translate(737.625,590.625) scale(3.605)"><rect width="6" height="6"/></g>
<g transform="translate(758.625,590.625) scale(3.605)"><rect width="6" height="6"/></g>
<g transform="translate(800.625,590.625) scale(3.605)"><rect width="6" height="6"/></g>
<g transform="translate(842.625,590.625) scale(3.605)"><rect width="6" height="6"/></g>
<g transform="translate(905.625,590.625) scale(3.605)"><rect width="6" height="6"/></g>
<g transform="translate(926.625,590.625) scale(3.605)"><rect width="6" height="6"/></g>
<g transform="translate(233.625,611.625) scale(3.605)"><rect width="6" height="6"/></g>
<g transform="translate(317.625,611.625) scale(3.605)"><rect width="6" height="6"/></g>
<g transform="translate(338.625,611.625) scale(3.605)"><rect width="6" height="6"/></g>
<g transform="translate(464.625,611.625) scale(3.605)"><rect width="6" height="6"/></g>
<g transform="translate(485.625,611.625) scale(3.605)"><rect width="6" height="6"/></g>
<g transform="translate(611.625,611.625) scale(3.605)"><rect width="6" height="6"/></g>
<g transform="translate(632.625,611.625) scale(3.605)"><rect width="6" height="6"/></g>
<g transform="translate(653.625,611.625) scale(3.605)"><rect width="6" height="6"/></g>
<g transform="translate(716.625,611.625) scale(3.605)"><rect width="6" height="6"/></g>
<g transform="translate(758.625,611.625) scale(3.605)"><rect width="6" height="6"/></g>
<g transform="translate(800.625,611.625) scale(3.605)"><rect width="6" height="6"/></g>
<g transform="translate(821.625,611.625) scale(3.605)"><rect width="6" height="6"/></g>
<g transform="translate(905.625,611.625) scale(3.605)"><rect width="6" height="6"/></g>
<g transform="translate(947.625,611.625) scale(3.605)"><rect width="6" height="6"/></g>
<g transform="translate(128.625,632.625) scale(3.605)"><rect width="6" height="6"/></g>
<g transform="translate(170.625,632.625) scale(3.605)"><rect width="6" height="6"/></g>
<g transform="translate(275.625,632.625) scale(3.605)"><rect width="6" height="6"/></g>
<g transform="translate(380.625,632.625) scale(3.605)"><rect width="6" height="6"/></g>
<g transform="translate(443.625,632.625) scale(3.605)"><rect width="6" height="6"/></g>
<g transform="translate(506.625,632.625) scale(3.605)"><rect width="6" height="6"/></g>
<g transform="translate(527.625,632.625) scale(3.605)"><rect width="6" height="6"/></g>
<g transform="translate(548.625,632.625) scale(3.605)"><rect width="6" height="6"/></g>
<g transform="translate(590.625,632.625) scale(3.605)"><rect width="6" height="6"/></g>
<g transform="translate(695.625,632.625) scale(3.605)"><rect width="6" height="6"/></g>
<g transform="translate(737.625,632.625) scale(3.605)"><rect width="6" height="6"/></g>
<g transform="translate(758.625,632.625) scale(3.605)"><rect width="6" height="6"/></g>
<g transform="translate(800.625,632.625) scale(3.605)"><rect width="6" height="6"/></g>
<g transform="translate(863.625,632.625) scale(3.605)"><rect width="6" height="6"/></g>
<g transform="translate(884.625,632.625) scale(3.605)"><rect width="6" height="6"/></g>
<g transform="translate(926.625,632.625) scale(3.605)"><rect width="6" height="6"/></g>
<g transform="translate(947.625,632.625) scale(3.605)"><rect width="6" height="6"/></g>
<g transform="translate(107.625,653.625) scale(3.605)"><rect width="6" height="6"/></g>
<g transform="translate(149.625,653.625) scale(3.605)"><rect width="6" height="6"/></g>
<g transform="translate(170.625,653.625) scale(3.605)"><rect width="6" height="6"/></g>
<g transform="translate(233.625,653.625) scale(3.605)"><rect width="6" height="6"/></g>
<g transform="translate(296.625,653.625) scale(3.605)"><rect width="6" height="6"/></g>
<g transform="translate(401.625,653.625) scale(3.605)"><rect width="6" height="6"/></g>
<g transform="translate(443.625,653.625) scale(3.605)"><rect width="6" height="6"/></g>
<g transform="translate(464.625,653.625) scale(3.605)"><rect width="6" height="6"/></g>
<g transform="translate(485.625,653.625) scale(3.605)"><rect width="6" height="6"/></g>
<g transform="translate(527.625,653.625) scale(3.605)"><rect width="6" height="6"/></g>
<g transform="translate(548.625,653.625) scale(3.605)"><rect width="6" height="6"/></g>
<g transform="translate(611.625,653.625) scale(3.605)"><rect width="6" height="6"/></g>
<g transform="translate(653.625,653.625) scale(3.605)"><rect width="6" height="6"/></g>
<g transform="translate(674.625,653.625) scale(3.605)"><rect width="6" height="6"/></g>
<g transform="translate(779.625,653.625) scale(3.605)"><rect width="6" height="6"/></g>
<g transform="translate(800.625,653.625) scale(3.605)"><rect width="6" height="6"/></g>
<g transform="translate(863.625,653.625) scale(3.605)"><rect width="6" height="6"/></g>
<g transform="translate(926.625,653.625) scale(3.605)"><rect width="6" height="6"/></g>
<g transform="translate(170.625,674.625) scale(3.605)"><rect width="6" height="6"/></g>
<g transform="translate(191.625,674.625) scale(3.605)"><rect width="6" height="6"/></g>
<g transform="translate(212.625,674.625) scale(3.605)"><rect width="6" height="6"/></g>
<g transform="translate(254.625,674.625) scale(3.605)"><rect width="6" height="6"/></g>
<g transform="translate(275.625,674.625) scale(3.605)"><rect width="6" height="6"/></g>
<g transform="translate(296.625,674.625) scale(3.605)"><rect width="6" height="6"/></g>
<g transform="translate(317.625,674.625) scale(3.605)"><rect width="6" height="6"/></g>
<g transform="translate(359.625,674.625) scale(3.605)"><rect width="6" height="6"/></g>
<g transform="translate(422.625,674.625) scale(3.605)"><rect width="6" height="6"/></g>
<g transform="translate(548.625,674.625) scale(3.605)"><rect width="6" height="6"/></g>
<g transform="translate(569.625,674.625) scale(3.605)"><rect width="6" height="6"/></g>
<g transform="translate(590.625,674.625) scale(3.605)"><rect width="6" height="6"/></g>
<g transform="translate(611.625,674.625) scale(3.605)"><rect width="6" height="6"/></g>
<g transform="translate(695.625,674.625) scale(3.605)"><rect width="6" height="6"/></g>
<g transform="translate(737.625,674.625) scale(3.605)"><rect width="6" height="6"/></g>
<g transform="translate(758.625,674.625) scale(3.605)"><rect width="6" height="6"/></g>
<g transform="translate(779.625,674.625) scale(3.605)"><rect width="6" height="6"/></g>
<g transform="translate(800.625,674.625) scale(3.605)"><rect width="6" height="6"/></g>
<g transform="translate(842.625,674.625) scale(3.605)"><rect width="6" height="6"/></g>
<g transform="translate(884.625,674.625) scale(3.605)"><rect width="6" height="6"/></g>
<g transform="translate(128.625,695.625) scale(3.605)"><rect width="6" height="6"/></g>
<g transform="translate(149.625,695.625) scale(3.605)"><rect width="6" height="6"/></g>
<g transform="translate(191.625,695.625) scale(3.605)"><rect width="6" height="6"/></g>
<g transform="translate(212.625,695.625) scale(3.605)"><rect width="6" height="6"/></g>
<g transform="translate(233.625,695.625) scale(3.605)"><rect width="6" height="6"/></g>
<g transform="translate(254.625,695.625) scale(3.605)"><rect width="6" height="6"/></g>
<g transform="translate(275.625,695.625) scale(3.605)"><rect width="6" height="6"/></g>
<g transform="translate(338.625,695.625) scale(3.605)"><rect width="6" height="6"/></g>
<g transform="translate(401.625,695.625) scale(3.605)"><rect width="6" height="6"/></g>
<g transform="translate(422.625,695.625) scale(3.605)"><rect width="6" height="6"/></g>
<g transform="translate(506.625,695.625) scale(3.605)"><rect width="6" height="6"/></g>
<g transform="translate(527.625,695.625) scale(3.605)"><rect width="6" height="6"/></g>
<g transform="translate(548.625,695.625) scale(3.605)"><rect width="6" height="6"/></g>
<g transform="translate(611.625,695.625) scale(3.605)"><rect width="6" height="6"/></g>
<g transform="translate(632.625,695.625) scale(3.605)"><rect width="6" height="6"/></g>
<g transform="translate(653.625,695.625) scale(3.605)"><rect width="6" height="6"/></g>
<g transform="translate(695.625,695.625) scale(3.605)"><rect width="6" height="6"/></g>
<g transform="translate(716.625,695.625) scale(3.605)"><rect width="6" height="6"/></g>
<g transform="translate(737.625,695.625) scale(3.605)"><rect width="6" height="6"/></g>
<g transform="translate(758.625,695.625) scale(3.605)"><rect width="6" height="6"/></g>
<g transform="translate(800.625,695.625) scale(3.605)"><rect width="6" height="6"/></g>
<g transform="translate(863.625,695.625) scale(3.605)"><rect width="6" height="6"/></g>
<g transform="translate(884.625,695.625) scale(3.605)"><rect width="6" height="6"/></g>
<g transform="translate(905.625,695.625) scale(3.605)"><rect width="6" height="6"/></g>
<g transform="translate(947.625,695.625) scale(3.605)"><rect width="6" height="6"/></g>
<g transform="translate(107.625,716.625) scale(3.605)"><rect width="6" height="6"/></g>
<g transform="translate(170.625,716.625) scale(3.605)"><rect width="6" height="6"/></g>
<g transform="translate(212.625,716.625) scale(3.605)"><rect width="6" height="6"/></g>
<g transform="translate(296.625,716.625) scale(3.605)"><rect width="6" height="6"/></g>
<g transform="translate(317.625,716.625) scale(3.605)"><rect width="6" height="6"/></g>
<g transform="translate(359.625,716.625) scale(3.605)"><rect width="6" height="6"/></g>
<g transform="translate(380.625,716.625) scale(3.605)"><rect width="6" height="6"/></g>
<g transform="translate(464.625,716.625) scale(3.605)"><rect width="6" height="6"/></g>
<g transform="translate(632.625,716.625) scale(3.605)"><rect width="6" height="6"/></g>
<g transform="translate(653.625,716.625) scale(3.605)"><rect width="6" height="6"/></g>
<g transform="translate(674.625,716.625) scale(3.605)"><rect width="6" height="6"/></g>
<g transform="translate(716.625,716.625) scale(3.605)"><rect width="6" height="6"/></g>
<g transform="translate(779.625,716.625) scale(3.605)"><rect width="6" height="6"/></g>
<g transform="translate(800.625,716.625) scale(3.605)"><rect width="6" height="6"/></g>
<g transform="translate(842.625,716.625) scale(3.605)"><rect width="6" height="6"/></g>
<g transform="translate(863.625,716.625) scale(3.605)"><rect width="6" height="6"/></g>
<g transform="translate(947.625,716.625) scale(3.605)"><rect width="6" height="6"/></g>
<g transform="translate(107.625,737.625) scale(3.605)"><rect width="6" height="6"/></g>
<g transform="translate(149.625,737.625) scale(3.605)"><rect width="6" height="6"/></g>
<g transform="translate(191.625,737.625) scale(3.605)"><rect width="6" height="6"/></g>
<g transform="translate(233.625,737.625) scale(3.605)"><rect width="6" height="6"/></g>
<g transform="translate(254.625,737.625) scale(3.605)"><rect width="6" height="6"/></g>
<g transform="translate(296.625,737.625) scale(3.605)"><rect width="6" height="6"/></g>
<g transform="translate(338.625,737.625) scale(3.605)"><rect width="6" height="6"/></g>
<g transform="translate(359.625,737.625) scale(3.605)"><rect width="6" height="6"/></g>
<g transform="translate(380.625,737.625) scale(3.605)"><rect width="6" height="6"/></g>
<g transform="translate(527.625,737.625) scale(3.605)"><rect width="6" height="6"/></g>
<g transform="translate(569.625,737.625) scale(3.605)"><rect width="6" height="6"/></g>
<g transform="translate(590.625,737.625) scale(3.605)"><rect width="6" height="6"/></g>
<g transform="translate(611.625,737.625) scale(3.605)"><rect width="6" height="6"/></g>
<g transform="translate(653.625,737.625) scale(3.605)"><rect width="6" height="6"/></g>
<g transform="translate(674.625,737.625) scale(3.605)"><rect width="6" height="6"/></g>
<g transform="translate(695.625,737.625) scale(3.605)"><rect width="6" height="6"/></g>
<g transform="translate(758.625,737.625) scale(3.605)"><rect width="6" height="6"/></g>
<g transform="translate(800.625,737.625) scale(3.605)"><rect width="6" height="6"/></g>
<g transform="translate(821.625,737.625) scale(3.605)"><rect width="6" height="6"/></g>
<g transform="translate(863.625,737.625) scale(3.605)"><rect width="6" height="6"/></g>
<g transform="translate(905.625,737.625) scale(3.605)"><rect width="6" height="6"/></g>
<g transform="translate(107.625,758.625) scale(3.605)"><rect width="6" height="6"/></g>
<g transform="translate(212.625,758.625) scale(3.605)"><rect width="6" height="6"/></g>
<g transform="translate(254.625,758.625) scale(3.605)"><rect width="6" height="6"/></g>
<g transform="translate(296.625,758.625) scale(3.605)"><rect width="6" height="6"/></g>
<g transform="translate(338.625,758.625) scale(3.605)"><rect width="6" height="6"/></g>
<g transform="translate(380.625,758.625) scale(3.605)"><rect width="6" height="6"/></g>
<g transform="translate(422.625,758.625) scale(3.605)"><rect width="6" height="6"/></g>
<g transform="translate(485.625,758.625) scale(3.605)"><rect width="6" height="6"/></g>
<g transform="translate(590.625,758.625) scale(3.605)"><rect width="6" height="6"/></g>
<g transform="translate(632.625,758.625) scale(3.605)"><rect width="6" height="6"/></g>
<g transform="translate(653.625,758.625) scale(3.605)"><rect width="6" height="6"/></g>
<g transform="translate(674.625,758.625) scale(3.605)"><rect width="6" height="6"/></g>
<g transform="translate(737.625,758.625) scale(3.605)"><rect width="6" height="6"/></g>
<g transform="translate(758.625,758.625) scale(3.605)"><rect width="6" height="6"/></g>
<g transform="translate(779.625,758.625) scale(3.605)"><rect width="6" height="6"/></g>
<g transform="translate(800.625,758.625) scale(3.605)"><rect width="6" height="6"/></g>
<g transform="translate(821.625,758.625) scale(3.605)"><rect width="6" height="6"/></g>
<g transform="translate(842.625,758.625) scale(3.605)"><rect width="6" height="6"/></g>
<g transform="translate(884.625,758.625) scale(3.605)"><rect width="6" height="6"/></g>
<g transform="translate(926.625,758.625) scale(3.605)"><rect width="6" height="6"/></g>
<g transform="translate(947.625,758.625) scale(3.605)"><rect width="6" height="6"/></g>
<g transform="translate(107.625,779.625) scale(3.605)"><rect width="6" height="6"/></g>
<g transform="translate(170.625,779.625) scale(3.605)"><rect width="6" height="6"/></g>
<g transform="translate(233.625,779.625) scale(3.605)"><rect width="6" height="6"/></g>
<g transform="translate(254.625,779.625) scale(3.605)"><rect width="6" height="6"/></g>
<g transform="translate(275.625,779.625) scale(3.605)"><rect width="6" height="6"/></g>
<g transform="translate(296.625,779.625) scale(3.605)"><rect width="6" height="6"/></g>
<g transform="translate(317.625,779.625) scale(3.605)"><rect width="6" height="6"/></g>
<g transform="translate(338.625,779.625) scale(3.605)"><rect width="6" height="6"/></g>
<g transform="translate(359.625,779.625) scale(3.605)"><rect width="6" height="6"/></g>
<g transform="translate(380.625,779.625) scale(3.605)"><rect width="6" height="6"/></g>
<g transform="translate(401.625,779.625) scale(3.605)"><rect width="6" height="6"/></g>
<g transform="translate(464.625,779.625) scale(3.605)"><rect width="6" height="6"/></g>
<g transform="translate(485.625,779.625) scale(3.605)"><rect width="6" height="6"/></g>
<g transform="translate(548.625,779.625) scale(3.605)"><rect width="6" height="6"/></g>
<g transform="translate(590.625,779.625) scale(3.605)"><rect width="6" height="6"/></g>
<g transform="translate(611.625,779.625) scale(3.605)"><rect width="6" height="6"/></g>
<g transform="translate(653.625,779.625) scale(3.605)"><rect width="6" height="6"/></g>
<g transform="translate(674.625,779.625) scale(3.605)"><rect width="6" height="6"/></g>
<g transform="translate(716.625,779.625) scale(3.605)"><rect width="6" height="6"/></g>
<g transform="translate(737.625,779.625) scale(3.605)"><rect width="6" height="6"/></g>
<g transform="translate(758.625,779.625) scale(3.605)"><rect width="6" height="6"/></g>
<g transform="translate(779.625,779.625) scale(3.605)"><rect width="6" height="6"/></g>
<g transform="translate(800.625,779.625) scale(3.605)"><rect width="6" height="6"/></g>
<g transform="translate(821.625,779.625) scale(3.605)"><rect width="6" height="6"/></g>
<g transform="translate(842.625,779.625) scale(3.605)"><rect width="6" height="6"/></g>
<g transform="translate(863.625,779.625) scale(3.605)"><rect width="6" height="6"/></g>
<g transform="translate(926.625,779.625) scale(3.605)"><rect width="6" height="6"/></g>
<g transform="translate(275.625,800.625) scale(3.605)"><rect width="6" height="6"/></g>
<g transform="translate(359.625,800.625) scale(3.605)"><rect width="6" height="6"/></g>
<g transform="translate(380.625,800.625) scale(3.605)"><rect width="6" height="6"/></g>
<g transform="translate(422.625,800.625) scale(3.605)"><rect width="6" height="6"/></g>
<g transform="translate(443.625,800.625) scale(3.605)"><rect width="6" height="6"/></g>
<g transform="translate(485.625,800.625) scale(3.605)"><rect width="6" height="6"/></g>
<g transform="translate(506.625,800.625) scale(3.605)"><rect width="6" height="6"/></g>
<g transform="translate(590.625,800.625) scale(3.605)"><rect width="6" height="6"/></g>
<g transform="translate(611.625,800.625) scale(3.605)"><rect width="6" height="6"/></g>
<g transform="translate(716.625,800.625) scale(3.605)"><rect width="6" height="6"/></g>
<g transform="translate(737.625,800.625) scale(3.605)"><rect width="6" height="6"/></g>
<g transform="translate(779.625,800.625) scale(3.605)"><rect width="6" height="6"/></g>
<g transform="translate(863.625,800.625) scale(3.605)"><rect width="6" height="6"/></g>
<g transform="translate(884.625,800.625) scale(3.605)"><rect width="6" height="6"/></g>
<g transform="translate(905.625,800.625) scale(3.605)"><rect width="6" height="6"/></g>
<g transform="translate(926.625,800.625) scale(3.605)"><rect width="6" height="6"/></g>
<g transform="translate(296.625,821.625) scale(3.605)"><rect width="6" height="6"/></g>
<g transform="translate(317.625,821.625) scale(3.605)"><rect width="6" height="6"/></g>
<g transform="translate(338.625,821.625) scale(3.605)"><rect width="6" height="6"/></g>
<g transform="translate(380.625,821.625) scale(3.605)"><rect width="6" height="6"/></g>
<g transform="translate(401.625,821.625) scale(3.605)"><rect width="6" height="6"/></g>
<g transform="translate(422.625,821.625) scale(3.605)"><rect width="6" height="6"/></g>
<g transform="translate(485.625,821.625) scale(3.605)"><rect width="6" height="6"/></g>
<g transform="translate(506.625,821.625) scale(3.605)"><rect width="6" height="6"/></g>
<g transform="translate(569.625,821.625) scale(3.605)"><rect width="6" height="6"/></g>
<g transform="translate(590.625,821.625) scale(3.605)"><rect width="6" height="6"/></g>
<g transform="translate(695.625,821.625) scale(3.605)"><rect width="6" height="6"/></g>
<g transform="translate(716.625,821.625) scale(3.605)"><rect width="6" height="6"/></g>
<g transform="translate(758.625,821.625) scale(3.605)"><rect width="6" height="6"/></g>
<g transform="translate(779.625,821.625) scale(3.605)"><rect width="6" height="6"/></g>
<g transform="translate(821.625,821.625) scale(3.605)"><rect width="6" height="6"/></g>
<g transform="translate(863.625,821.625) scale(3.605)"><rect width="6" height="6"/></g>
<g transform="translate(884.625,821.625) scale(3.605)"><rect width="6" height="6"/></g>
<g transform="translate(275.625,842.625) scale(3.605)"><rect width="6" height="6"/></g>
<g transform="translate(296.625,842.625) scale(3.605)"><rect width="6" height="6"/></g>
<g transform="translate(338.625,842.625) scale(3.605)"><rect width="6" height="6"/></g>
<g transform="translate(359.625,842.625) scale(3.605)"><rect width="6" height="6"/></g>
<g transform="translate(380.625,842.625) scale(3.605)"><rect width="6" height="6"/></g>
<g transform="translate(401.625,842.625) scale(3.605)"><rect width="6" height="6"/></g>
<g transform="translate(443.625,842.625) scale(3.605)"><rect width="6" height="6"/></g>
<g transform="translate(527.625,842.625) scale(3.605)"><rect width="6" height="6"/></g>
<g transform="translate(653.625,842.625) scale(3.605)"><rect width="6" height="6"/></g>
<g transform="translate(674.625,842.625) scale(3.605)"><rect width="6" height="6"/></g>
<g transform="translate(695.625,842.625) scale(3.605)"><rect width="6" height="6"/></g>
<g transform="translate(716.625,842.625) scale(3.605)"><rect width="6" height="6"/></g>
<g transform="translate(737.625,842.625) scale(3.605)"><rect width="6" height="6"/></g>
<g transform="translate(758.625,842.625) scale(3.605)"><rect width="6" height="6"/></g>
<g transform="translate(779.625,842.625) scale(3.605)"><rect width="6" height="6"/></g>
<g transform="translate(863.625,842.625) scale(3.605)"><rect width="6" height="6"/></g>
<g transform="translate(905.625,842.625) scale(3.605)"><rect width="6" height="6"/></g>
<g transform="translate(275.625,863.625) scale(3.605)"><rect width="6" height="6"/></g>
<g transform="translate(296.625,863.625) scale(3.605)"><rect width="6" height="6"/></g>
<g transform="translate(338.625,863.625) scale(3.605)"><rect width="6" height="6"/></g>
<g transform="translate(422.625,863.625) scale(3.605)"><rect width="6" height="6"/></g>
<g transform="translate(485.625,863.625) scale(3.605)"><rect width="6" height="6"/></g>
<g transform="translate(506.625,863.625) scale(3.605)"><rect width="6" height="6"/></g>
<g transform="translate(548.625,863.625) scale(3.605)"><rect width="6" height="6"/></g>
<g transform="translate(569.625,863.625) scale(3.605)"><rect width="6" height="6"/></g>
<g transform="translate(674.625,863.625) scale(3.605)"><rect width="6" height="6"/></g>
<g transform="translate(758.625,863.625) scale(3.605)"><rect width="6" height="6"/></g>
<g transform="translate(779.625,863.625) scale(3.605)"><rect width="6" height="6"/></g>
<g transform="translate(800.625,863.625) scale(3.605)"><rect width="6" height="6"/></g>
<g transform="translate(821.625,863.625) scale(3.605)"><rect width="6" height="6"/></g>
<g transform="translate(842.625,863.625) scale(3.605)"><rect width="6" height="6"/></g>
<g transform="translate(863.625,863.625) scale(3.605)"><rect width="6" height="6"/></g>
<g transform="translate(275.625,884.625) scale(3.605)"><rect width="6" height="6"/></g>
<g transform="translate(296.625,884.625) scale(3.605)"><rect width="6" height="6"/></g>
<g transform="translate(359.625,884.625) scale(3.605)"><rect width="6" height="6"/></g>
<g transform="translate(401.625,884.625) scale(3.605)"><rect width="6" height="6"/></g>
<g transform="translate(443.625,884.625) scale(3.605)"><rect width="6" height="6"/></g>
<g transform="translate(464.625,884.625) scale(3.605)"><rect width="6" height="6"/></g>
<g transform="translate(527.625,884.625) scale(3.605)"><rect width="6" height="6"/></g>
<g transform="translate(590.625,884.625) scale(3.605)"><rect width="6" height="6"/></g>
<g transform="translate(611.625,884.625) scale(3.605)"><rect width="6" height="6"/></g>
<g transform="translate(653.625,884.625) scale(3.605)"><rect width="6" height="6"/></g>
<g transform="translate(674.625,884.625) scale(3.605)"><rect width="6" height="6"/></g>
<g transform="translate(695.625,884.625) scale(3.605)"><rect width="6" height="6"/></g>
<g transform="translate(737.625,884.625) scale(3.605)"><rect width="6" height="6"/></g>
<g transform="translate(758.625,884.625) scale(3.605)"><rect width="6" height="6"/></g>
<g transform="translate(800.625,884.625) scale(3.605)"><rect width="6" height="6"/></g>
<g transform="translate(842.625,884.625) scale(3.605)"><rect width="6" height="6"/></g>
<g transform="translate(884.625,884.625) scale(3.605)"><rect width="6" height="6"/></g>
<g transform="translate(905.625,884.625) scale(3.605)"><rect width="6" height="6"/></g>
<g transform="translate(926.625,884.625) scale(3.605)"><rect width="6" height="6"/></g>
<g transform="translate(947.625,884.625) scale(3.605)"><rect width="6" height="6"/></g>
<g transform="translate(275.625,905.625) scale(3.605)"><rect width="6" height="6"/></g>
<g transform="translate(338.625,905.625) scale(3.605)"><rect width="6" height="6"/></g>
<g transform="translate(359.625,905.625) scale(3.605)"><rect width="6" height="6"/></g>
<g transform="translate(380.625,905.625) scale(3.605)"><rect width="6" height="6"/></g>
<g transform="translate(401.625,905.625) scale(3.605)"><rect width="6" height="6"/></g>
<g transform="translate(422.625,905.625) scale(3.605)"><rect width="6" height="6"/></g>
<g transform="translate(443.625,905.625) scale(3.605)"><rect width="6" height="6"/></g>
<g transform="translate(569.625,905.625) scale(3.605)"><rect width="6" height="6"/></g>
<g transform="translate(611.625,905.625) scale(3.605)"><rect width="6" height="6"/></g>
<g transform="translate(653.625,905.625) scale(3.605)"><rect width="6" height="6"/></g>
<g transform="translate(674.625,905.625) scale(3.605)"><rect width="6" height="6"/></g>
<g transform="translate(695.625,905.625) scale(3.605)"><rect width="6" height="6"/></g>
<g transform="translate(758.625,905.625) scale(3.605)"><rect width="6" height="6"/></g>
<g transform="translate(779.625,905.625) scale(3.605)"><rect width="6" height="6"/></g>
<g transform="translate(800.625,905.625) scale(3.605)"><rect width="6" height="6"/></g>
<g transform="translate(821.625,905.625) scale(3.605)"><rect width="6" height="6"/></g>
<g transform="translate(842.625,905.625) scale(3.605)"><rect width="6" height="6"/></g>
<g transform="translate(863.625,905.625) scale(3.605)"><rect width="6" height="6"/></g>
<g transform="translate(905.625,905.625) scale(3.605)"><rect width="6" height="6"/></g>
<g transform="translate(926.625,905.625) scale(3.605)"><rect width="6" height="6"/></g>
<g transform="translate(296.625,926.625) scale(3.605)"><rect width="6" height="6"/></g>
<g transform="translate(359.625,926.625) scale(3.605)"><rect width="6" height="6"/></g>
<g transform="translate(380.625,926.625) scale(3.605)"><rect width="6" height="6"/></g>
<g transform="translate(443.625,926.625) scale(3.605)"><rect width="6" height="6"/></g>
<g transform="translate(464.625,926.625) scale(3.605)"><rect width="6" height="6"/></g>
<g transform="translate(548.625,926.625) scale(3.605)"><rect width="6" height="6"/></g>
<g transform="translate(590.625,926.625) scale(3.605)"><rect width="6" height="6"/></g>
<g transform="translate(611.625,926.625) scale(3.605)"><rect width="6" height="6"/></g>
<g transform="translate(695.625,926.625) scale(3.605)"><rect width="6" height="6"/></g>
<g transform="translate(800.625,926.625) scale(3.605)"><rect width="6" height="6"/></g>
<g transform="translate(821.625,926.625) scale(3.605)"><rect width="6" height="6"/></g>
<g transform="translate(863.625,926.625) scale(3.605)"><rect width="6" height="6"/></g>
<g transform="translate(926.625,926.625) scale(3.605)"><rect width="6" height="6"/></g>
<g transform="translate(275.625,947.625) scale(3.605)"><rect width="6" height="6"/></g>
<g transform="translate(296.625,947.625) scale(3.605)"><rect width="6" height="6"/></g>
<g transform="translate(317.625,947.625) scale(3.605)"><rect width="6" height="6"/></g>
<g transform="translate(338.625,947.625) scale(3.605)"><rect width="6" height="6"/></g>
<g transform="translate(380.625,947.625) scale(3.605)"><rect width="6" height="6"/></g>
<g transform="translate(422.625,947.625) scale(3.605)"><rect width="6" height="6"/></g>
<g transform="translate(443.625,947.625) scale(3.605)"><rect width="6" height="6"/></g>
<g transform="translate(464.625,947.625) scale(3.605)"><rect width="6" height="6"/></g>
<g transform="translate(569.625,947.625) scale(3.605)"><rect width="6" height="6"/></g>
<g transform="translate(590.625,947.625) scale(3.605)"><rect width="6" height="6"/></g>
<g transform="translate(611.625,947.625) scale(3.605)"><rect width="6" height="6"/></g>
<g transform="translate(632.625,947.625) scale(3.605)"><rect width="6" height="6"/></g>
<g transform="translate(653.625,947.625) scale(3.605)"><rect width="6" height="6"/></g>
<g transform="translate(674.625,947.625) scale(3.605)"><rect width="6" height="6"/></g>
<g transform="translate(716.625,947.625) scale(3.605)"><rect width="6" height="6"/></g>
<g transform="translate(758.625,947.625) scale(3.605)"><rect width="6" height="6"/></g>
<g transform="translate(842.625,947.625) scale(3.605)"><rect width="6" height="6"/></g>
<g transform="translate(863.625,947.625) scale(3.605)"><rect width="6" height="6"/></g>
<g transform="translate(107.625,107.625)"><g transform="scale(10.5)"><path d="M0,0v14h14V0H0z M12,12H2V2h10V12z"/></g></g>
<g transform="translate(821.625,107.625)"><g transform="scale(10.5)"><path d="M0,0v14h14V0H0z M12,12H2V2h10V12z"/></g></g>
<g transform="translate(107.625,821.625)"><g transform="scale(10.5)"><path d="M0,0v14h14V0H0z M12,12H2V2h10V12z"/></g></g>
<g transform="translate(149.625,149.625)"><g transform="scale(10.5)"><rect width="6" height="6"/></g></g>
<g transform="translate(863.625,149.625)"><g transform="scale(10.5)"><rect width="6" height="6"/></g></g>
<g transform="translate(149.625,863.625)"><g transform="scale(10.5)"><rect width="6" height="6"/></g></g>
</g><g transform="translate(234.58978013029,0) scale(1.4957654723127)"><path fill="#FFFFFF" d="M8.69140625,119.921875l0-45.01953125l-7.763671875,0l0-6.8359375l7.763671875,0l0-5.517578125q0-5.224609375,0.927734375-7.763671875q1.26953125-3.41796875,4.4677734375-5.5419921875t8.9599609375-2.1240234375q3.7109375,0,8.203125,0.87890625l-1.318359375,7.666015625q-2.734375-0.48828125-5.17578125-0.48828125q-4.00390625,0-5.6640625,1.708984375t-1.66015625,6.396484375l0,4.78515625l10.107421875,0l0,6.8359375l-10.107421875,0l0,45.01953125l-8.740234375,0z M69.873046875,103.22265625l9.08203125,1.123046875q-2.1484375,7.958984375-7.958984375,12.353515625t-14.84375,4.39453125q-11.376953125,0-18.0419921875-7.0068359375t-6.6650390625-19.6533203125q0-13.0859375,6.73828125-20.3125t17.48046875-7.2265625q10.400390625,0,16.9921875,7.080078125t6.591796875,19.921875q0,0.78125-0.048828125,2.34375l-38.671875,0q0.48828125,8.544921875,4.833984375,13.0859375t10.83984375,4.541015625q4.833984375,0,8.251953125-2.5390625t5.419921875-8.10546875z M41.015625,89.013671875l28.955078125,0q-0.5859375-6.54296875-3.3203125-9.814453125q-4.19921875-5.078125-10.888671875-5.078125q-6.0546875,0-10.1806640625,4.052734375t-4.5654296875,10.83984375z M125.48828125,103.22265625l9.08203125,1.123046875q-2.1484375,7.958984375-7.958984375,12.353515625t-14.84375,4.39453125q-11.376953125,0-18.0419921875-7.0068359375t-6.6650390625-19.6533203125q0-13.0859375,6.73828125-20.3125t17.48046875-7.2265625q10.400390625,0,16.9921875,7.080078125t6.591796875,19.921875q0,0.78125-0.048828125,2.34375l-38.671875,0q0.48828125,8.544921875,4.833984375,13.0859375t10.83984375,4.541015625q4.833984375,0,8.251953125-2.5390625t5.419921875-8.10546875z M96.630859375,89.013671875l28.955078125,0q-0.5859375-6.54296875-3.3203125-9.814453125q-4.19921875-5.078125-10.888671875-5.078125q-6.0546875,0-10.1806640625,4.052734375t-4.5654296875,10.83984375z M179.248046875,119.921875l0-6.54296875q-4.931640625,7.71484375-14.501953125,7.71484375q-6.201171875,0-11.4013671875-3.41796875t-8.056640625-9.5458984375t-2.8564453125-14.0869140625q0-7.763671875,2.587890625-14.0869140625t7.763671875-9.6923828125t11.572265625-3.369140625q4.6875,0,8.349609375,1.9775390625t5.95703125,5.1513671875l0-25.68359375l8.740234375,0l0,71.58203125l-8.154296875,0z M151.46484375,94.04296875q0,9.9609375,4.19921875,14.892578125t9.912109375,4.931640625q5.76171875,0,9.7900390625-4.7119140625t4.0283203125-14.3798828125q0-10.64453125-4.1015625-15.625t-10.107421875-4.98046875q-5.859375,0-9.7900390625,4.78515625t-3.9306640625,15.087890625z M209.326171875,119.921875l-8.154296875,0l0-71.58203125l8.7890625,0l0,25.537109375q5.56640625-6.982421875,14.208984375-6.982421875q4.78515625,0,9.0576171875,1.9287109375t7.03125,5.419921875t4.3212890625,8.4228515625t1.5625,10.546875q0,13.330078125-6.591796875,20.60546875t-15.8203125,7.275390625q-9.1796875,0-14.404296875-7.666015625l0,6.494140625z M209.228515625,93.603515625q0,9.326171875,2.5390625,13.4765625q4.150390625,6.787109375,11.23046875,6.787109375q5.76171875,0,9.9609375-5.0048828125t4.19921875-14.9169921875q0-10.15625-4.0283203125-14.990234375t-9.7412109375-4.833984375q-5.76171875,0-9.9609375,5.0048828125t-4.19921875,14.4775390625z M290.673828125,113.525390625q-4.8828125,4.150390625-9.3994140625,5.859375t-9.6923828125,1.708984375q-8.544921875,0-13.134765625-4.1748046875t-4.58984375-10.6689453125q0-3.80859375,1.7333984375-6.9580078125t4.541015625-5.0537109375t6.3232421875-2.880859375q2.587890625-0.68359375,7.8125-1.318359375q10.64453125-1.26953125,15.673828125-3.02734375q0.048828125-1.806640625,0.048828125-2.294921875q0-5.37109375-2.490234375-7.568359375q-3.369140625-2.978515625-10.009765625-2.978515625q-6.201171875,0-9.1552734375,2.1728515625t-4.3701171875,7.6904296875l-8.59375-1.171875q1.171875-5.517578125,3.857421875-8.9111328125t7.763671875-5.224609375t11.767578125-1.8310546875q6.640625,0,10.791015625,1.5625t6.103515625,3.9306640625t2.734375,5.9814453125q0.439453125,2.24609375,0.439453125,8.10546875l0,11.71875q0,12.255859375,0.5615234375,15.5029296875t2.2216796875,6.2255859375l-9.1796875,0q-1.3671875-2.734375-1.7578125-6.396484375z M289.94140625,93.896484375q-4.78515625,1.953125-14.35546875,3.3203125q-5.419921875,0.78125-7.666015625,1.7578125t-3.466796875,2.8564453125t-1.220703125,4.1748046875q0,3.515625,2.6611328125,5.859375t7.7880859375,2.34375q5.078125,0,9.033203125-2.2216796875t5.810546875-6.0791015625q1.416015625-2.978515625,1.416015625-8.7890625l0-3.22265625z M346.2890625,100.927734375l8.642578125,1.123046875q-1.416015625,8.935546875-7.2509765625,13.9892578125t-14.3310546875,5.0537109375q-10.64453125,0-17.1142578125-6.9580078125t-6.4697265625-19.9462890625q0-8.3984375,2.783203125-14.697265625t8.4716796875-9.4482421875t12.3779296875-3.1494140625q8.447265625,0,13.818359375,4.2724609375t6.884765625,12.1337890625l-8.544921875,1.318359375q-1.220703125-5.224609375-4.3212890625-7.861328125t-7.4951171875-2.63671875q-6.640625,0-10.791015625,4.7607421875t-4.150390625,15.0634765625q0,10.44921875,4.00390625,15.185546875t10.44921875,4.736328125q5.17578125,0,8.642578125-3.173828125t4.39453125-9.765625z M362.5,119.921875l0-71.58203125l8.7890625,0l0,40.8203125l20.80078125-21.09375l11.376953125,0l-19.82421875,19.23828125l21.826171875,32.6171875l-10.83984375,0l-17.138671875-26.513671875l-6.201171875,5.95703125l0,20.556640625l-8.7890625,0z"/></g></svg>
