<?xml version="1.0" encoding="UTF-8" standalone="no"?>
<!DOCTYPE svg PUBLIC "-//W3C//DTD SVG 1.1//EN"
 "http://www.w3.org/Graphics/SVG/1.1/DTD/svg11.dtd">
<!-- Generated by graphviz version 2.47.0 (20210316.0004)
 -->
<!-- Title: dependencies Pages: 1 -->
<svg width="1002pt" height="425pt"
 viewBox="0.00 0.00 1002.00 425.00" xmlns="http://www.w3.org/2000/svg" xmlns:xlink="http://www.w3.org/1999/xlink">
<g id="graph0" class="graph" transform="scale(1 1) rotate(0) translate(4 421)">
<title>dependencies</title>
<polygon fill="white" stroke="transparent" points="-4,4 -4,-421 998,-421 998,4 -4,4"/>
<text text-anchor="start" x="476.01" y="-42.4" font-family="Times-12" font-weight="bold" font-size="14.00">Legend</text>
<polygon fill="#ffffb3" stroke="transparent" points="263,-10 263,-30 283,-30 283,-10 263,-10"/>
<text text-anchor="start" x="286.63" y="-15.4" font-family="Times-12" font-size="14.00"> &#160;Declarations</text>
<polygon fill="#8dd3c7" stroke="transparent" points="376,-10 376,-30 396,-30 396,-10 376,-10"/>
<text text-anchor="start" x="399.73" y="-15.4" font-family="Times-12" font-size="14.00"> &#160;Module</text>
<polygon fill="#80b1d3" stroke="transparent" points="462,-10 462,-30 482,-30 482,-10 462,-10"/>
<text text-anchor="start" x="485.78" y="-15.4" font-family="Times-12" font-size="14.00"> &#160;Bootstrap</text>
<polygon fill="#fdb462" stroke="transparent" points="559,-10 559,-30 579,-30 579,-10 559,-10"/>
<text text-anchor="start" x="582.67" y="-15.4" font-family="Times-12" font-size="14.00"> &#160;Providers</text>
<polygon fill="#fb8072" stroke="transparent" points="655,-10 655,-30 675,-30 675,-10 655,-10"/>
<text text-anchor="start" x="678.73" y="-15.4" font-family="Times-12" font-size="14.00"> &#160;Exports</text>
<g id="clust1" class="cluster">
<title>cluster_AppModule</title>
<polygon fill="none" stroke="black" stroke-dasharray="1,5" points="223,-211 223,-409 986,-409 986,-211 223,-211"/>
</g>
<g id="clust2" class="cluster">
<title>cluster_AppModule_declarations</title>
<polygon fill="none" stroke="black" points="702,-219 702,-271 978,-271 978,-219 702,-219"/>
</g>
<g id="clust5" class="cluster">
<title>cluster_AppModule_imports</title>
<polygon fill="none" stroke="black" points="405,-219 405,-271 694,-271 694,-219 405,-219"/>
</g>
<g id="clust7" class="cluster">
<title>cluster_AppModule_bootstrap</title>
<polygon fill="none" stroke="black" points="560,-349 560,-401 684,-401 684,-349 560,-349"/>
</g>
<g id="clust8" class="cluster">
<title>cluster_AppModule_providers</title>
<polygon fill="none" stroke="black" points="231,-219 231,-271 397,-271 397,-219 231,-219"/>
</g>
<g id="clust15" class="cluster">
<title>cluster_DashboardModule</title>
<polygon fill="none" stroke="black" stroke-dasharray="1,5" points="8,-70 8,-279 186,-279 186,-70 8,-70"/>
</g>
<g id="clust16" class="cluster">
<title>cluster_DashboardModule_declarations</title>
<polygon fill="none" stroke="black" points="19,-78 19,-130 177,-130 177,-78 19,-78"/>
</g>
<g id="clust19" class="cluster">
<title>cluster_DashboardModule_exports</title>
<polygon fill="none" stroke="black" points="16,-219 16,-271 178,-271 178,-219 16,-219"/>
</g>
<g id="clust22" class="cluster">
<title>cluster_ReservationModule</title>
<polygon fill="none" stroke="black" stroke-dasharray="1,5" points="194,-70 194,-203 778,-203 778,-70 194,-70"/>
</g>
<g id="clust23" class="cluster">
<title>cluster_ReservationModule_declarations</title>
<polygon fill="none" stroke="black" points="202,-143 202,-195 770,-195 770,-143 202,-143"/>
</g>
<g id="clust24" class="cluster">
<title>cluster_ReservationModule_ReservationComponent_providers</title>
<polygon fill="none" stroke="black" points="582,-78 582,-130 770,-130 770,-78 582,-78"/>
</g>
<!-- AppComponent -->
<g id="node1" class="node">
<title>AppComponent</title>
<polygon fill="#ffffb3" stroke="black" points="969.94,-263 864.06,-263 864.06,-227 969.94,-227 969.94,-263"/>
<text text-anchor="middle" x="917" y="-240.8" font-family="Times,serif" font-size="14.00">AppComponent</text>
</g>
<!-- AppModule -->
<g id="node3" class="node">
<title>AppModule</title>
<polygon fill="#8dd3c7" stroke="black" points="663.66,-328 660.66,-332 639.66,-332 636.66,-328 580.34,-328 580.34,-292 663.66,-292 663.66,-328"/>
<text text-anchor="middle" x="622" y="-305.8" font-family="Times,serif" font-size="14.00">AppModule</text>
</g>
<!-- AppComponent&#45;&gt;AppModule -->
<g id="edge1" class="edge">
<title>AppComponent&#45;&gt;AppModule</title>
<path fill="none" stroke="black" d="M917,-263.28C917,-284.32 917,-316 917,-316 917,-316 673.95,-316 673.95,-316"/>
<polygon fill="black" stroke="black" points="673.95,-312.5 663.95,-316 673.95,-319.5 673.95,-312.5"/>
</g>
<!-- MessagesComponent -->
<g id="node2" class="node">
<title>MessagesComponent</title>
<polygon fill="#ffffb3" stroke="black" points="845.75,-263 710.25,-263 710.25,-227 845.75,-227 845.75,-263"/>
<text text-anchor="middle" x="778" y="-240.8" font-family="Times,serif" font-size="14.00">MessagesComponent</text>
</g>
<!-- MessagesComponent&#45;&gt;AppModule -->
<g id="edge2" class="edge">
<title>MessagesComponent&#45;&gt;AppModule</title>
<path fill="none" stroke="black" d="M778,-263.02C778,-280.37 778,-304 778,-304 778,-304 673.81,-304 673.81,-304"/>
<polygon fill="black" stroke="black" points="673.81,-300.5 663.81,-304 673.81,-307.5 673.81,-300.5"/>
</g>
<!-- AppComponent  -->
<g id="node6" class="node">
<title>AppComponent </title>
<polygon fill="#80b1d3" stroke="black" points="676.44,-393 567.56,-393 567.56,-357 676.44,-357 676.44,-393"/>
<text text-anchor="middle" x="622" y="-370.8" font-family="Times,serif" font-size="14.00">AppComponent </text>
</g>
<!-- AppModule&#45;&gt;AppComponent  -->
<g id="edge5" class="edge">
<title>AppModule&#45;&gt;AppComponent </title>
<path fill="none" stroke="black" stroke-dasharray="1,5" d="M622,-328.11C622,-328.11 622,-346.99 622,-346.99"/>
<polygon fill="black" stroke="black" points="618.5,-346.99 622,-356.99 625.5,-346.99 618.5,-346.99"/>
</g>
<!-- AppRoutingModule -->
<g id="node4" class="node">
<title>AppRoutingModule</title>
<polygon fill="#8dd3c7" stroke="black" points="686.27,-263 683.27,-267 662.27,-267 659.27,-263 557.73,-263 557.73,-227 686.27,-227 686.27,-263"/>
<text text-anchor="middle" x="622" y="-240.8" font-family="Times,serif" font-size="14.00">AppRoutingModule</text>
</g>
<!-- AppRoutingModule&#45;&gt;AppModule -->
<g id="edge3" class="edge">
<title>AppRoutingModule&#45;&gt;AppModule</title>
<path fill="none" stroke="black" d="M622,-263.11C622,-263.11 622,-281.99 622,-281.99"/>
<polygon fill="black" stroke="black" points="618.5,-281.99 622,-291.99 625.5,-281.99 618.5,-281.99"/>
</g>
<!-- ReservationModule -->
<g id="node5" class="node">
<title>ReservationModule</title>
<polygon fill="#8dd3c7" stroke="black" points="539.42,-263 536.42,-267 515.42,-267 512.42,-263 412.58,-263 412.58,-227 539.42,-227 539.42,-263"/>
<text text-anchor="middle" x="476" y="-240.8" font-family="Times,serif" font-size="14.00">ReservationModule</text>
</g>
<!-- ReservationModule&#45;&gt;AppModule -->
<g id="edge4" class="edge">
<title>ReservationModule&#45;&gt;AppModule</title>
<path fill="none" stroke="black" d="M476,-263.02C476,-280.37 476,-304 476,-304 476,-304 570.16,-304 570.16,-304"/>
<polygon fill="black" stroke="black" points="570.16,-307.5 580.16,-304 570.16,-300.5 570.16,-307.5"/>
</g>
<!-- NoopInterceptor -->
<g id="node7" class="node">
<title>NoopInterceptor</title>
<ellipse fill="#fdb462" stroke="black" cx="314" cy="-245" rx="74.7" ry="18"/>
<text text-anchor="middle" x="314" y="-240.8" font-family="Times,serif" font-size="14.00">NoopInterceptor</text>
</g>
<!-- NoopInterceptor&#45;&gt;AppModule -->
<g id="edge6" class="edge">
<title>NoopInterceptor&#45;&gt;AppModule</title>
<path fill="none" stroke="black" d="M314,-263.28C314,-284.32 314,-316 314,-316 314,-316 570.14,-316 570.14,-316"/>
<polygon fill="black" stroke="black" points="570.14,-319.5 580.14,-316 570.14,-312.5 570.14,-319.5"/>
</g>
<!-- DashboardComponent -->
<g id="node8" class="node">
<title>DashboardComponent</title>
<polygon fill="#ffffb3" stroke="black" points="168.97,-122 27.03,-122 27.03,-86 168.97,-86 168.97,-122"/>
<text text-anchor="middle" x="98" y="-99.8" font-family="Times,serif" font-size="14.00">DashboardComponent</text>
</g>
<!-- DashboardModule -->
<g id="node9" class="node">
<title>DashboardModule</title>
<polygon fill="#8dd3c7" stroke="black" points="158.19,-187 155.19,-191 134.19,-191 131.19,-187 37.81,-187 37.81,-151 158.19,-151 158.19,-187"/>
<text text-anchor="middle" x="98" y="-164.8" font-family="Times,serif" font-size="14.00">DashboardModule</text>
</g>
<!-- DashboardComponent&#45;&gt;DashboardModule -->
<g id="edge7" class="edge">
<title>DashboardComponent&#45;&gt;DashboardModule</title>
<path fill="none" stroke="black" d="M98,-122.11C98,-122.11 98,-140.99 98,-140.99"/>
<polygon fill="black" stroke="black" points="94.5,-140.99 98,-150.99 101.5,-140.99 94.5,-140.99"/>
</g>
<!-- DashboardModule&#45;&gt;ReservationModule -->
<g id="edge13" class="edge">
<title>DashboardModule&#45;&gt;ReservationModule</title>
<path fill="none" stroke="black" d="M118.03,-187.24C118.03,-194.43 118.03,-201 118.03,-201 118.03,-201 445.15,-201 445.15,-201 445.15,-201 445.15,-216.85 445.15,-216.85"/>
<polygon fill="black" stroke="black" points="441.65,-216.85 445.15,-226.85 448.65,-216.85 441.65,-216.85"/>
</g>
<!-- DashboardComponent  -->
<g id="node10" class="node">
<title>DashboardComponent </title>
<polygon fill="#fb8072" stroke="black" points="169.97,-263 24.03,-263 24.03,-227 169.97,-227 169.97,-263"/>
<text text-anchor="middle" x="97" y="-240.8" font-family="Times,serif" font-size="14.00">DashboardComponent </text>
</g>
<!-- DashboardModule&#45;&gt;DashboardComponent  -->
<g id="edge8" class="edge">
<title>DashboardModule&#45;&gt;DashboardComponent </title>
<path fill="none" stroke="black" stroke-dasharray="5,2" d="M77.97,-187.01C77.97,-187.01 77.97,-216.85 77.97,-216.85"/>
<polygon fill="black" stroke="black" points="74.47,-216.85 77.97,-226.85 81.47,-216.85 74.47,-216.85"/>
</g>
<!-- ReservationComponent -->
<g id="node11" class="node">
<title>ReservationComponent</title>
<polygon fill="#ffffb3" stroke="black" points="762.2,-187 613.8,-187 613.8,-151 762.2,-151 762.2,-187"/>
<text text-anchor="middle" x="688" y="-164.8" font-family="Times,serif" font-size="14.00">ReservationComponent</text>
</g>
<!-- ReservationComponent&#45;&gt;ReservationModule -->
<g id="edge9" class="edge">
<title>ReservationComponent&#45;&gt;ReservationModule</title>
<path fill="none" stroke="black" d="M650.14,-187.04C650.14,-199.56 650.14,-214 650.14,-214 650.14,-214 507.86,-214 507.86,-214 507.86,-214 507.86,-216.97 507.86,-216.97"/>
<polygon fill="black" stroke="black" points="504.36,-216.97 507.86,-226.97 511.36,-216.97 504.36,-216.97"/>
</g>
<!-- ReservationDetailComponent -->
<g id="node12" class="node">
<title>ReservationDetailComponent</title>
<polygon fill="#ffffb3" stroke="black" points="596.41,-187 413.59,-187 413.59,-151 596.41,-151 596.41,-187"/>
<text text-anchor="middle" x="505" y="-164.8" font-family="Times,serif" font-size="14.00">ReservationDetailComponent</text>
</g>
<!-- ReservationDetailComponent&#45;&gt;ReservationModule -->
<g id="edge11" class="edge">
<title>ReservationDetailComponent&#45;&gt;ReservationModule</title>
<path fill="none" stroke="black" d="M476.5,-187.01C476.5,-187.01 476.5,-216.85 476.5,-216.85"/>
<polygon fill="black" stroke="black" points="473,-216.85 476.5,-226.85 480,-216.85 473,-216.85"/>
</g>
<!-- ReservationSearchComponent -->
<g id="node13" class="node">
<title>ReservationSearchComponent</title>
<polygon fill="#ffffb3" stroke="black" points="396.29,-187 209.71,-187 209.71,-151 396.29,-151 396.29,-187"/>
<text text-anchor="middle" x="303" y="-164.8" font-family="Times,serif" font-size="14.00">ReservationSearchComponent</text>
</g>
<!-- ReservationSearchComponent&#45;&gt;ReservationModule -->
<g id="edge12" class="edge">
<title>ReservationSearchComponent&#45;&gt;ReservationModule</title>
<path fill="none" stroke="black" d="M392.5,-187.01C392.5,-209.49 392.5,-245 392.5,-245 392.5,-245 402.71,-245 402.71,-245"/>
<polygon fill="black" stroke="black" points="402.71,-248.5 412.71,-245 402.71,-241.5 402.71,-248.5"/>
</g>
<!-- ReservationService -->
<g id="node14" class="node">
<title>ReservationService</title>
<ellipse fill="#fdb462" stroke="black" cx="676" cy="-104" rx="86.23" ry="18"/>
<text text-anchor="middle" x="676" y="-99.8" font-family="Times,serif" font-size="14.00">ReservationService</text>
</g>
<!-- ReservationService&#45;&gt;ReservationComponent -->
<g id="edge10" class="edge">
<title>ReservationService&#45;&gt;ReservationComponent</title>
<path fill="none" stroke="black" d="M688,-122.11C688,-122.11 688,-140.99 688,-140.99"/>
<polygon fill="black" stroke="black" points="684.5,-140.99 688,-150.99 691.5,-140.99 684.5,-140.99"/>
</g>
</g>
</svg>
