<?xml version="1.0" encoding="UTF-8" standalone="no"?>
<!-- Generator: Adobe Illustrator 18.1.1, SVG Export Plug-In . SVG Version: 6.00 Build 0)  -->

<svg
   xmlns:dc="http://purl.org/dc/elements/1.1/"
   xmlns:cc="http://creativecommons.org/ns#"
   xmlns:rdf="http://www.w3.org/1999/02/22-rdf-syntax-ns#"
   xmlns:svg="http://www.w3.org/2000/svg"
   xmlns="http://www.w3.org/2000/svg"
   xmlns:sodipodi="http://sodipodi.sourceforge.net/DTD/sodipodi-0.dtd"
   xmlns:inkscape="http://www.inkscape.org/namespaces/inkscape"
   version="1.1"
   id="Calque_1"
   x="0px"
   y="0px"
   viewBox="0 0 999.99997 300.00001"
   enable-background="new 0 0 841.9 595.3"
   xml:space="preserve"
   inkscape:version="0.91 r13725"
   sodipodi:docname="logo.svg"
   width="1000"
   height="300"
   inkscape:export-filename="./logo_500x150.png"
   inkscape:export-xdpi="45"
   inkscape:export-ydpi="45"><metadata
     id="metadata4270"><rdf:RDF><cc:Work
         rdf:about=""><dc:format>image/svg+xml</dc:format><dc:type
           rdf:resource="http://purl.org/dc/dcmitype/StillImage" /><dc:title></dc:title></cc:Work></rdf:RDF></metadata><defs
     id="defs4268" /><sodipodi:namedview
     pagecolor="#ffffff"
     bordercolor="#666666"
     borderopacity="1"
     objecttolerance="10"
     gridtolerance="10"
     guidetolerance="10"
     inkscape:pageopacity="0"
     inkscape:pageshadow="2"
     inkscape:window-width="1920"
     inkscape:window-height="1003"
     id="namedview4266"
     showgrid="false"
     fit-margin-top="0"
     fit-margin-left="0"
     fit-margin-right="0"
     fit-margin-bottom="0"
     inkscape:zoom="0.94668926"
     inkscape:cx="649.45656"
     inkscape:cy="243.48046"
     inkscape:window-x="0"
     inkscape:window-y="24"
     inkscape:window-maximized="1"
     inkscape:current-layer="layer2" /><g
     id="layer2"
     inkscape:groupmode="layer"
     inkscape:label="SVG"
     transform="translate(-21.571915,51.323915)"><g
       id="g4242"
       transform="matrix(1.17851,0,0,1.17851,17.275454,-279.5098)"><path
         d="m 426.7,393.6 c 7.6,-25.2 14.8,-49.4 22.1,-73.6 0.5,0.1 1.1,0.1 1.6,0.2 0.2,1.7 0.4,3.4 0.5,5.1 0.3,11.7 0.5,23.3 0.9,35 0.2,5.1 0.5,10.2 4.5,14.4 1.1,1.2 0.8,6 -0.3,6.6 -9,4.9 -17.6,10.8 -29.3,12.3 z"
         id="path4244"
         inkscape:connector-curvature="0"
         style="fill:#ea5b0c" /><path
         d="m 454.4,292.4 c 0.7,5.2 1.8,10.5 2,15.7 0.1,1.7 -2,3.7 -3.5,5.1 -1.1,0.9 -3.1,1.3 -4.4,0.9 -0.7,-0.2 -1.4,-2.6 -1.1,-3.9 1.2,-6 2.6,-12 4,-18 1,0.1 2,0.2 3,0.2 z"
         id="path4246"
         inkscape:connector-curvature="0"
         style="fill:#ea5b0c" /><path
         d="m 426.2,317.4 c 4.1,-3.1 8.9,-4.8 14.1,-3.9 1.8,0.3 3.1,2.9 4.6,4.5 -2.1,1.9 -4.4,5.4 -6.4,5.3 -4.3,-0.3 -8.4,-2.5 -12.6,-4 0.1,-0.6 0.2,-1.3 0.3,-1.9 z"
         id="path4248"
         inkscape:connector-curvature="0"
         style="fill:#ea5b0c" /><path
         d="m 464.6,320.5 c -2.3,0.5 -4.7,1.4 -7,1.2 -1.2,-0.1 -2.1,-2.3 -3.2,-3.5 1.5,-0.8 3,-2.5 4.3,-2.3 2.1,0.3 4,1.8 6,2.8 0.1,0.5 0,1.2 -0.1,1.8 z"
         id="path4250"
         inkscape:connector-curvature="0"
         style="fill:#ea5b0c" /></g><path
       id="path3054"
       inkscape:connector-curvature="0"
       d="M 150.91849,233.75497 C 120.27723,227.27317 101.42107,216.66658 79.500781,193.33208 56.166283,168.58337 44.263332,141.94904 42.84912,111.30778 41.552759,83.494945 48.505968,68.056464 67.59783,55.564256 c 10.370888,-6.717507 16.616991,-8.367421 29.46275,-7.896017 9.42808,0.353553 11.90295,0.942808 18.85617,4.360487 17.91335,8.838825 32.88042,28.873497 39.24438,52.679404 2.12132,8.01386 2.00346,26.63432 -0.2357,41.12999 -2.47488,15.67419 -1.76777,36.29811 1.64991,45.72619 5.0676,14.14212 18.50262,29.93416 31.93763,37.59447 12.84576,7.30676 13.31716,6.95321 -8.13172,6.95321 -14.14212,-0.2357 -22.156,-0.82496 -29.46276,-2.35702 l 0,0 z"
       style="fill:#e1e04e" /><path
       id="path3052"
       inkscape:connector-curvature="0"
       d="m 212.43672,224.09119 c -8.24957,-1.64992 -16.73484,-6.95321 -26.39862,-16.49914 -11.3137,-11.19585 -13.31716,-16.61699 -13.19931,-35.3553 0.11785,-10.25304 0.58925,-13.78857 3.06412,-20.27037 4.71404,-12.61006 10.13519,-20.62393 21.56674,-32.17333 12.13865,-12.13865 17.32409,-15.08492 40.54074,-22.863091 8.01387,-2.710573 17.5598,-6.363954 21.33103,-8.24957 22.74525,-11.431547 37.71232,-36.180259 37.71232,-62.107479 0,-12.256504 2.71058,-10.724441 11.078,6.128252 11.43154,23.216647 16.38129,43.015617 16.38129,65.996562 0,15.792036 -2.00347,26.870026 -7.66032,42.779916 -12.61006,35.8267 -34.29464,61.63607 -63.99309,76.36745 -14.61353,7.18891 -26.51648,9.07452 -40.4229,6.2461 z"
       style="fill:#dd7927" /><path
       id="path3020"
       inkscape:connector-curvature="0"
       d="M 204.65856,72.181249 C 189.22008,69.706378 179.32059,64.638785 158.1074,48.021792 137.71918,32.111907 129.23391,28.576377 110.967,27.75142 95.646368,27.044314 87.514649,28.92993 72.901125,36.472394 c -5.774699,2.946275 -10.724441,5.067593 -11.077994,4.71404 -1.17851,-1.17851 4.831891,-12.727908 13.199312,-25.337965 9.192378,-13.9064179 25.691517,-31.230515 36.769517,-38.655128 13.67072,-9.192378 27.81284,-15.084928 47.6118,-19.681117 10.72446,-2.474871 52.20801,-2.474871 61.75394,0 34.53034,8.956676 58.21839,30.64126 60.33971,55.38997 0.94281,10.960143 -1.17851,24.395157 -5.18544,31.584068 -6.12826,11.313696 -21.21318,22.627394 -35.1196,26.398626 -7.89602,1.767765 -27.69499,2.592722 -36.53381,1.296361 z"
       style="fill:#8e3089" /><path
       inkscape:connector-curvature="0"
       id="path4465"
       style="color:#000000;font-style:normal;font-variant:normal;font-weight:bold;font-stretch:normal;font-size:76.13083649px;line-height:125%;font-family:'Nexa Bold';-inkscape-font-specification:'Nexa Bold, Bold';text-indent:0;text-align:start;text-decoration:none;text-decoration-line:none;letter-spacing:0px;word-spacing:0px;text-transform:none;direction:ltr;block-progression:tb;writing-mode:lr-tb;baseline-shift:baseline;text-anchor:start;visibility:visible;fill:#000000;fill-opacity:1;fill-rule:nonzero;stroke:none;stroke-width:1px;stroke-linecap:butt;stroke-linejoin:miter;stroke-opacity:1;marker:none;marker-start:none;marker-mid:none;marker-end:none"
       d="m 368.15001,128.40044 20.52304,0 c 5.48636,0 13.3095,3.35277 13.3095,9.75353 0,6.70553 -7.82314,8.53432 -13.3095,8.53432 l -20.52304,0 0,-18.28785 z m 0,-28.14299 20.52304,0 c 8.53434,0 11.17591,5.48636 11.17591,8.73754 0,4.06396 -2.74317,7.61994 -11.17591,7.61994 l -20.52304,0 0,-16.35748 z m 20.52304,-12.191901 c -11.27752,0 -22.55503,0 -33.73093,0 l 0,71.119451 c 11.2775,0 22.45341,0 33.73093,0 14.73189,0 26.619,-5.07997 26.619,-20.92943 0,-4.47037 -3.04798,-13.30951 -11.37913,-15.84948 6.60396,-2.94639 9.24554,-8.22954 9.24554,-13.71591 0,-14.325472 -10.46472,-20.624631 -24.48541,-20.624631 z" /><path
       inkscape:connector-curvature="0"
       id="path4467"
       style="color:#000000;font-style:normal;font-variant:normal;font-weight:bold;font-stretch:normal;font-size:76.13083649px;line-height:125%;font-family:'Nexa Bold';-inkscape-font-specification:'Nexa Bold, Bold';text-indent:0;text-align:start;text-decoration:none;text-decoration-line:none;letter-spacing:0px;word-spacing:0px;text-transform:none;direction:ltr;block-progression:tb;writing-mode:lr-tb;baseline-shift:baseline;text-anchor:start;visibility:visible;fill:#000000;fill-opacity:1;fill-rule:nonzero;stroke:none;stroke-width:1px;stroke-linecap:butt;stroke-linejoin:miter;stroke-opacity:1;marker:none;marker-start:none;marker-mid:none;marker-end:none"
       d="m 423.8867,109.09659 0,50.08841 12.39509,0 0,-26.4158 c 0,-9.24553 5.99437,-12.69989 12.4967,-12.69989 4.06399,0 6.40076,1.11759 8.94074,3.25117 l 5.58796,-10.76951 c -2.74319,-2.7432 -7.72154,-4.77517 -12.9031,-4.77517 -5.07997,0 -10.26152,0.91438 -14.1223,7.11194 l -0.91439,-5.79115 -11.4807,0 z" /><path
       inkscape:connector-curvature="0"
       id="path4469"
       style="color:#000000;font-style:normal;font-variant:normal;font-weight:bold;font-stretch:normal;font-size:76.13083649px;line-height:125%;font-family:'Nexa Bold';-inkscape-font-specification:'Nexa Bold, Bold';text-indent:0;text-align:start;text-decoration:none;text-decoration-line:none;letter-spacing:0px;word-spacing:0px;text-transform:none;direction:ltr;block-progression:tb;writing-mode:lr-tb;baseline-shift:baseline;text-anchor:start;visibility:visible;fill:#000000;fill-opacity:1;fill-rule:nonzero;stroke:none;stroke-width:1px;stroke-linecap:butt;stroke-linejoin:miter;stroke-opacity:1;marker:none;marker-start:none;marker-mid:none;marker-end:none"
       d="m 517.62148,138.56035 c 1.93038,-20.62463 -8.53433,-30.98776 -25.2982,-30.98776 -16.25588,0 -26.61899,10.97272 -26.61899,26.21261 0,16.05266 10.26151,26.72058 27.53338,26.72058 7.61994,0 16.25586,-2.64157 21.53902,-8.12794 l -7.92473,-7.82314 c -2.84479,2.94638 -8.83913,4.67357 -13.41109,4.67357 -8.73753,0 -14.12229,-4.47037 -14.93508,-10.66792 l 39.11569,0 z m -38.91249,-10.26152 c 1.82878,-6.50235 7.31514,-9.75352 14.02068,-9.75352 7.11194,0 12.19191,3.25117 13.0047,9.75352 l -27.02538,0 z" /><path
       inkscape:connector-curvature="0"
       id="path4473"
       style="color:#000000;font-style:normal;font-variant:normal;font-weight:bold;font-stretch:normal;font-size:76.13083649px;line-height:125%;font-family:'Nexa Bold';-inkscape-font-specification:'Nexa Bold, Bold';text-indent:0;text-align:start;text-decoration:none;text-decoration-line:none;letter-spacing:0px;word-spacing:0px;text-transform:none;direction:ltr;block-progression:tb;writing-mode:lr-tb;baseline-shift:baseline;text-anchor:start;visibility:visible;fill:#000000;fill-opacity:1;fill-rule:nonzero;stroke:none;stroke-width:1px;stroke-linecap:butt;stroke-linejoin:miter;stroke-opacity:1;marker:none;marker-start:none;marker-mid:none;marker-end:none"
       d="m 573.3319,109.09659 0,11.2775 22.14863,0 -23.97741,33.62935 0,5.18156 42.16367,0 0,-12.19191 -23.26622,0 23.06301,-32.00374 0,-5.89276 -40.13168,0 z" /><path
       inkscape:connector-curvature="0"
       id="path4475"
       style="color:#000000;font-style:normal;font-variant:normal;font-weight:bold;font-stretch:normal;font-size:76.13083649px;line-height:125%;font-family:'Nexa Bold';-inkscape-font-specification:'Nexa Bold, Bold';text-indent:0;text-align:start;text-decoration:none;text-decoration-line:none;letter-spacing:0px;word-spacing:0px;text-transform:none;direction:ltr;block-progression:tb;writing-mode:lr-tb;baseline-shift:baseline;text-anchor:start;visibility:visible;fill:#000000;fill-opacity:1;fill-rule:nonzero;stroke:none;stroke-width:1px;stroke-linecap:butt;stroke-linejoin:miter;stroke-opacity:1;marker:none;marker-start:none;marker-mid:none;marker-end:none"
       d="m 621.0867,88.065549 0,71.119451 12.3951,0 0,-25.603 c 0,-7.51834 5.07997,-13.71589 12.39511,-13.71589 6.60395,0 11.37912,3.86076 11.37912,13.00469 l 0,26.3142 12.39509,0 0,-26.4158 c 0,-14.73188 -6.29915,-24.38381 -20.52303,-24.38381 -5.68956,0 -11.17592,1.72719 -15.64629,7.51834 l 0,-27.838181 -12.3951,0 z" /><path
       inkscape:connector-curvature="0"
       id="path4477"
       style="color:#000000;font-style:normal;font-variant:normal;font-weight:bold;font-stretch:normal;font-size:76.13083649px;line-height:125%;font-family:'Nexa Bold';-inkscape-font-specification:'Nexa Bold, Bold';text-indent:0;text-align:start;text-decoration:none;text-decoration-line:none;letter-spacing:0px;word-spacing:0px;text-transform:none;direction:ltr;block-progression:tb;writing-mode:lr-tb;baseline-shift:baseline;text-anchor:start;visibility:visible;fill:#000000;fill-opacity:1;fill-rule:nonzero;stroke:none;stroke-width:1px;stroke-linecap:butt;stroke-linejoin:miter;stroke-opacity:1;marker:none;marker-start:none;marker-mid:none;marker-end:none"
       d="m 752.53004,140.99874 c -4.67356,4.67356 -11.68389,7.21354 -17.88146,7.21354 -17.57666,0 -24.38381,-12.2935 -24.4854,-24.07901 -0.10159,-11.88711 7.31514,-24.688606 24.4854,-24.688606 6.19757,0 12.49672,2.133576 17.17027,6.705546 l 8.94074,-8.635934 c -7.31515,-7.213541 -16.45909,-10.871118 -26.11101,-10.871118 -25.70459,0 -37.7949,18.897462 -37.6933,37.490112 0.10159,18.49105 11.27751,36.67731 37.6933,36.67731 10.26153,0 19.71026,-3.35278 27.0254,-10.56631 l -9.14394,-9.24553 z" /><path
       inkscape:connector-curvature="0"
       id="path4479"
       style="color:#000000;font-style:normal;font-variant:normal;font-weight:bold;font-stretch:normal;font-size:76.13083649px;line-height:125%;font-family:'Nexa Bold';-inkscape-font-specification:'Nexa Bold, Bold';text-indent:0;text-align:start;text-decoration:none;text-decoration-line:none;letter-spacing:0px;word-spacing:0px;text-transform:none;direction:ltr;block-progression:tb;writing-mode:lr-tb;baseline-shift:baseline;text-anchor:start;visibility:visible;fill:#000000;fill-opacity:1;fill-rule:nonzero;stroke:none;stroke-width:1px;stroke-linecap:butt;stroke-linejoin:miter;stroke-opacity:1;marker:none;marker-start:none;marker-mid:none;marker-end:none"
       d="m 808.12067,103.71182 c 18.69425,0 31.59735,7.72156 31.59735,29.97178 0,7.61994 -2.13358,15.44307 -5.68955,16.35746 -1.01599,0.30481 -2.03199,-0.40639 -2.03199,-2.03198 l 0,-34.84853 -9.55032,-1.32078 -0.8128,5.18156 c -2.23517,-4.26716 -8.53432,-7.82314 -14.12228,-7.82314 -14.4271,0 -25.9078,10.66792 -25.9078,25.2982 0,14.73188 11.37911,24.99339 26.0094,24.99339 4.36877,0 12.39509,-2.74317 14.63028,-8.94072 0,7.72153 6.29916,9.65193 10.26152,9.65193 11.88711,0 18.59265,-10.36313 18.59265,-26.51739 0,-26.92379 -18.69425,-40.131686 -42.97646,-40.131686 -21.94542,0 -42.67165,14.223886 -42.67165,40.944476 0,28.04137 21.13263,39.92847 41.85886,39.92847 5.89275,0 12.49669,-1.01598 19.40545,-5.07995 l -4.67357,-8.83913 c -5.18156,3.14958 -10.36311,3.55597 -14.42708,3.55597 -14.83349,0 -30.68296,-7.51834 -30.68296,-29.56536 0,-20.11665 15.84947,-30.78457 31.19095,-30.78457 z m -0.30481,16.25589 c 9.44874,0 13.9191,6.29915 13.9191,13.91909 0,8.02633 -4.77516,14.73188 -14.02068,14.73188 -9.55032,0 -14.22389,-7.01036 -14.22389,-14.22389 0,-7.21354 4.87677,-14.42708 14.32547,-14.42708 z" /><path
       inkscape:connector-curvature="0"
       id="path4481"
       style="color:#000000;font-style:normal;font-variant:normal;font-weight:bold;font-stretch:normal;font-size:76.13083649px;line-height:125%;font-family:'Nexa Bold';-inkscape-font-specification:'Nexa Bold, Bold';text-indent:0;text-align:start;text-decoration:none;text-decoration-line:none;letter-spacing:0px;word-spacing:0px;text-transform:none;direction:ltr;block-progression:tb;writing-mode:lr-tb;baseline-shift:baseline;text-anchor:start;visibility:visible;fill:#000000;fill-opacity:1;fill-rule:nonzero;stroke:none;stroke-width:1px;stroke-linecap:butt;stroke-linejoin:miter;stroke-opacity:1;marker:none;marker-start:none;marker-mid:none;marker-end:none"
       d="m 906.96539,159.185 0,-26.82219 c 0,-6.60396 4.16557,-12.3951 10.87111,-12.3951 6.70555,0 9.44872,5.58794 9.44872,12.1919 l 0,27.02539 12.39512,0 0,-27.02539 c 0,-15.0367 -7.01036,-23.77422 -21.23424,-23.77422 -6.50235,0 -12.29351,2.03199 -16.76387,9.14393 -2.84478,-6.90874 -8.83913,-9.34712 -14.83348,-9.34712 -4.77517,0 -10.56632,1.82877 -13.20791,6.90874 l -0.91439,-6.09595 -11.4807,0 0,50.19001 12.39509,0 0,-26.82219 c 0,-6.60396 3.96237,-12.59831 10.66792,-12.59831 6.80716,0 10.26151,5.99435 10.26151,12.59831 l 0,26.82219 12.39512,0 z" /><path
       inkscape:connector-curvature="0"
       id="path4483"
       style="color:#000000;font-style:normal;font-variant:normal;font-weight:bold;font-stretch:normal;font-size:76.13083649px;line-height:125%;font-family:'Nexa Bold';-inkscape-font-specification:'Nexa Bold, Bold';text-indent:0;text-align:start;text-decoration:none;text-decoration-line:none;letter-spacing:0px;word-spacing:0px;text-transform:none;direction:ltr;block-progression:tb;writing-mode:lr-tb;baseline-shift:baseline;text-anchor:start;visibility:visible;fill:#000000;fill-opacity:1;fill-rule:nonzero;stroke:none;stroke-width:1px;stroke-linecap:butt;stroke-linejoin:miter;stroke-opacity:1;marker:none;marker-start:none;marker-mid:none;marker-end:none"
       d="m 978.44982,148.41548 c -8.43274,0 -14.2239,-6.40075 -14.2239,-14.2239 0,-7.82312 5.28316,-14.22387 14.2239,-14.22387 8.94071,0 14.22388,6.40075 14.22388,14.22387 0,7.82315 -5.79115,14.2239 -14.22388,14.2239 z m -15.34147,84.60615 0,-79.72939 c 3.55595,5.48636 11.3791,7.11194 16.66226,7.11194 16.05266,0 25.29819,-11.58232 25.29819,-26.2126 0,-14.73188 -10.2615,-26.21258 -25.70459,-26.21258 -5.68956,0 -12.3951,2.43838 -16.25586,8.02633 l -0.81281,-6.90874 -11.58231,0 0,123.92504 z"
       sodipodi:nodetypes="sssssccsssccccc" /><g
       transform="matrix(2.3780157,0,0,2.3780157,-429.5742,294.27901)"
       style="color:#000000;font-style:normal;font-variant:normal;font-weight:bold;font-stretch:normal;font-size:medium;line-height:125%;font-family:'Nexa Bold';-inkscape-font-specification:'Nexa Bold, Bold';text-indent:0;text-align:start;text-decoration:none;text-decoration-line:none;letter-spacing:0px;word-spacing:0px;text-transform:none;direction:ltr;block-progression:tb;writing-mode:lr-tb;baseline-shift:baseline;text-anchor:start;display:inline;overflow:visible;visibility:visible;fill:#4d4d4d;fill-opacity:1;fill-rule:nonzero;stroke:none;stroke-width:1px;stroke-linecap:butt;stroke-linejoin:miter;stroke-opacity:1;marker:none;marker-start:none;marker-mid:none;marker-end:none;enable-background:accumulate"
       id="flowRoot4558"><path
         d="m 433.8048,-38.230078 0,8.4 5.904,0 0,-1.464 -4.32,0 0,-6.936 -1.584,0 z"
         style=""
         id="path4567" /><path
         d="m 445.60642,-34.930078 c -0.336,-0.588 -1.092,-0.96 -1.884,-0.96 -1.728,-0.012 -3.084,1.056 -3.084,3.096 0,2.076 1.296,3.156 3.048,3.144 0.66,-0.012 1.584,-0.348 1.92,-1.044 l 0.072,0.864 1.38,0 0,-5.916 -1.404,0 -0.048,0.816 z m -1.752,0.348 c 2.304,0 2.304,3.588 0,3.588 -0.972,0 -1.752,-0.672 -1.752,-1.8 0,-1.128 0.78,-1.788 1.752,-1.788 z"
         style=""
         id="path4569" /><path
         d="m 454.80442,-31.546078 c -0.36,0.36 -0.828,0.492 -1.296,0.492 -0.912,0 -1.68,-0.6 -1.68,-1.728 0,-1.032 0.72,-1.752 1.704,-1.752 0.408,0 0.84,0.156 1.188,0.468 l 0.924,-0.972 c -0.648,-0.636 -1.296,-0.876 -2.136,-0.876 -1.716,0 -3.144,1.032 -3.144,3.132 0,2.1 1.428,3.132 3.144,3.132 0.876,0 1.596,-0.264 2.28,-0.936 l -0.984,-0.96 z"
         style=""
         id="path4571" /><path
         d="m 459.33236,-35.866078 c -1.884,0 -3.06,1.392 -3.06,3.084 0,1.704 1.152,3.084 3.072,3.084 1.92,0 3.084,-1.38 3.084,-3.084 0,-1.692 -1.212,-3.084 -3.096,-3.084 z m 0.012,1.332 c 0.984,0 1.608,0.864 1.608,1.752 0,0.9 -0.54,1.74 -1.608,1.74 -1.068,0 -1.608,-0.84 -1.608,-1.74 0,-0.888 0.552,-1.752 1.608,-1.752 z"
         style=""
         id="path4573" /><path
         d="m 469.25898,-29.830078 0,-3.108 c 0,-1.86 -1.116,-2.904 -2.508,-2.904 -0.744,0 -1.344,0.3 -1.944,0.888 l -0.096,-0.804 -1.308,0 0,5.928 1.452,0 0,-3.024 c 0,-0.9 0.612,-1.656 1.512,-1.656 0.936,0 1.428,0.684 1.428,1.584 l 0,3.096 1.464,0 z"
         style=""
         id="path4575" /><path
         d="m 472.46111,-29.830078 0,-4.548 1.74,0 0,-1.284 -1.74,0 0,-0.396 c 0,-0.72 0.384,-1.056 0.888,-1.056 0.3,0 0.588,0.108 0.9,0.312 l 0.54,-1.092 c -0.48,-0.312 -1.02,-0.48 -1.536,-0.48 -1.188,0 -2.256,0.732 -2.256,2.316 l 0,0.396 -1.104,0 0,1.284 1.104,0 0,4.548 1.464,0 z"
         style=""
         id="path4577" /><path
         d="m 481.21323,-32.266078 -4.62,0 c 0.096,0.732 0.732,1.26 1.764,1.26 0.54,0 1.248,-0.204 1.584,-0.552 l 0.936,0.924 c -0.624,0.648 -1.644,0.96 -2.544,0.96 -2.04,0 -3.252,-1.26 -3.252,-3.156 0,-1.8 1.224,-3.096 3.144,-3.096 1.98,0 3.216,1.224 2.988,3.66 z m -4.596,-1.212 3.192,0 c -0.096,-0.768 -0.696,-1.152 -1.536,-1.152 -0.792,0 -1.44,0.384 -1.656,1.152 z m 3.336,-4.932 -1.728,0 -0.888,1.632 0,0.072 1.296,0 1.32,-1.644 0,-0.06 z"
         style=""
         id="path4579" /><path
         d="m 482.35305,-35.746078 0,5.916 1.464,0 0,-3.12 c 0,-1.092 0.708,-1.5 1.476,-1.5 0.48,0 0.756,0.132 1.056,0.384 l 0.66,-1.272 c -0.324,-0.324 -0.912,-0.564 -1.524,-0.564 -0.6,0 -1.212,0.108 -1.668,0.84 l -0.108,-0.684 -1.356,0 z"
         style=""
         id="path4581" /><path
         d="m 493.42417,-32.266078 c 0.228,-2.436 -1.008,-3.66 -2.988,-3.66 -1.92,0 -3.144,1.296 -3.144,3.096 0,1.896 1.212,3.156 3.252,3.156 0.9,0 1.92,-0.312 2.544,-0.96 l -0.936,-0.924 c -0.336,0.348 -1.044,0.552 -1.584,0.552 -1.032,0 -1.668,-0.528 -1.764,-1.26 l 4.62,0 z m -4.596,-1.212 c 0.216,-0.768 0.864,-1.152 1.656,-1.152 0.84,0 1.44,0.384 1.536,1.152 l -3.192,0 z"
         style=""
         id="path4583" /><path
         d="m 500.38398,-29.830078 0,-3.108 c 0,-1.86 -1.116,-2.904 -2.508,-2.904 -0.744,0 -1.344,0.3 -1.944,0.888 l -0.096,-0.804 -1.308,0 0,5.928 1.452,0 0,-3.024 c 0,-0.9 0.612,-1.656 1.512,-1.656 0.936,0 1.428,0.684 1.428,1.584 l 0,3.096 1.464,0 z"
         style=""
         id="path4585" /><path
         d="m 505.73411,-31.546078 c -0.36,0.36 -0.828,0.492 -1.296,0.492 -0.912,0 -1.68,-0.6 -1.68,-1.728 0,-1.032 0.72,-1.752 1.704,-1.752 0.408,0 0.84,0.156 1.188,0.468 l 0.924,-0.972 c -0.648,-0.636 -1.296,-0.876 -2.136,-0.876 -1.716,0 -3.144,1.032 -3.144,3.132 0,2.1 1.428,3.132 3.144,3.132 0.876,0 1.596,-0.264 2.28,-0.936 l -0.984,-0.96 z"
         style=""
         id="path4587" /><path
         d="m 513.46323,-32.266078 c 0.228,-2.436 -1.008,-3.66 -2.988,-3.66 -1.92,0 -3.144,1.296 -3.144,3.096 0,1.896 1.212,3.156 3.252,3.156 0.9,0 1.92,-0.312 2.544,-0.96 l -0.936,-0.924 c -0.336,0.348 -1.044,0.552 -1.584,0.552 -1.032,0 -1.668,-0.528 -1.764,-1.26 l 4.62,0 z m -4.596,-1.212 c 0.216,-0.768 0.864,-1.152 1.656,-1.152 0.84,0 1.44,0.384 1.536,1.152 l -3.192,0 z"
         style=""
         id="path4589" /><path
         d="m 521.66111,-34.930078 c -0.336,-0.588 -1.092,-0.96 -1.884,-0.96 -1.728,-0.012 -3.084,1.056 -3.084,3.096 0,2.076 1.296,3.156 3.048,3.144 0.66,-0.012 1.584,-0.348 1.92,-1.044 l 0.072,0.864 1.38,0 0,-5.916 -1.404,0 -0.048,0.816 z m -1.752,0.348 c 2.304,0 2.304,3.588 0,3.588 -0.972,0 -1.752,-0.672 -1.752,-1.8 0,-1.128 0.78,-1.788 1.752,-1.788 z m -1.692,-3.696 1.32,1.644 1.296,0 0,-0.072 -0.888,-1.632 -1.728,0 0,0.06 z"
         style=""
         id="path4591" /><path
         d="m 526.76711,-38.218078 0,8.388 1.452,0 0,-8.388 -1.452,0 z"
         style=""
         id="path4593" /><path
         d="m 529.5693,-38.218078 0,3.216 1.332,0 0,-3.216 -1.332,0 z"
         style=""
         id="path4595" /><path
         d="m 536.14342,-38.398078 c -2.904,0 -4.32,2.22 -4.32,4.428 0,2.208 1.368,4.332 4.32,4.332 2.952,0 4.284,-2.172 4.308,-4.344 0.024,-2.196 -1.416,-4.416 -4.308,-4.416 z m 0,1.44 c 1.98,0 2.772,1.584 2.748,3 -0.024,1.38 -0.768,2.868 -2.748,2.868 -1.98,0 -2.724,-1.476 -2.76,-2.856 -0.036,-1.416 0.78,-3.012 2.76,-3.012 z"
         style=""
         id="path4597" /><path
         d="m 541.5453,-35.746078 0,3.108 c 0,1.836 1.032,2.904 2.448,2.904 0.828,0 1.392,-0.288 2.004,-0.888 l 0.096,0.804 1.308,0 0,-5.928 -1.452,0 0,3.024 c 0,0.9 -0.612,1.656 -1.512,1.656 -0.936,0 -1.428,-0.684 -1.428,-1.584 l 0,-3.096 -1.464,0 z"
         style=""
         id="path4599" /><path
         d="m 554.57261,-32.266078 c 0.228,-2.436 -1.008,-3.66 -2.988,-3.66 -1.92,0 -3.144,1.296 -3.144,3.096 0,1.896 1.212,3.156 3.252,3.156 0.9,0 1.92,-0.312 2.544,-0.96 l -0.936,-0.924 c -0.336,0.348 -1.044,0.552 -1.584,0.552 -1.032,0 -1.668,-0.528 -1.764,-1.26 l 4.62,0 z m -4.596,-1.212 c 0.216,-0.768 0.864,-1.152 1.656,-1.152 0.84,0 1.44,0.384 1.536,1.152 l -3.192,0 z"
         style=""
         id="path4601" /><path
         d="m 560.39242,-35.134078 c -0.684,-0.6 -1.38,-0.78 -2.304,-0.78 -1.08,0 -2.496,0.48 -2.496,1.848 0,1.344 1.332,1.752 2.448,1.836 0.84,0.048 1.176,0.216 1.176,0.624 0,0.432 -0.516,0.72 -1.068,0.708 -0.66,-0.012 -1.62,-0.36 -2.04,-0.828 l -0.72,1.044 c 0.864,0.9 1.8,1.056 2.736,1.056 1.692,0 2.544,-0.9 2.544,-1.944 0,-1.572 -1.416,-1.824 -2.532,-1.896 -0.756,-0.048 -1.104,-0.264 -1.104,-0.648 0,-0.372 0.384,-0.588 1.08,-0.588 0.564,0 1.044,0.132 1.464,0.528 l 0.816,-0.96 z"
         style=""
         id="path4603" /><path
         d="m 562.19523,-37.258078 0,1.524 -1.104,0 0,1.26 1.104,0 0,2.556 c 0,1.476 0.84,2.208 2.124,2.16 0.444,-0.012 0.792,-0.084 1.212,-0.252 l -0.408,-1.248 c -0.216,0.108 -0.48,0.18 -0.708,0.18 -0.456,0 -0.768,-0.276 -0.768,-0.84 l 0,-2.556 1.644,0 0,-1.26 -1.632,0 0,-1.68 -1.464,0.156 z"
         style=""
         id="path4605" /></g></g></svg>