<?xml version="1.0" encoding="utf-8"?>
<svg xmlns="http://www.w3.org/2000/svg" xmlns:xlink="http://www.w3.org/1999/xlink" xml:space="preserve" width="990" height="1237.5" viewBox="0 0 990 1237.5"><rect width="916.575" height="916.575" fill="#10b497" x="41.25" y="288.75"/><g transform="scale(41.25)" fill="#000000"><path d="M22.7,6L1.3,6C0.6,6,0,6.6,0,7.3l0,21.3C0,29.4,0.6,30,1.3,30l21.3,0c0.7,0,1.3-0.6,1.3-1.3l0-21.3 C24,6.6,23.4,6,22.7,6z M23,28c0,0.6-0.5,1-1,1L2,29c-0.6,0-1-0.5-1-1V8c0-0.6,0.5-1,1-1l20,0c0.6,0,1,0.5,1,1V28z"/><path d="M23,0H1C0.4,0,0,0.4,0,1v3c0,0.5,0.4,1,1,1h10l1,1l1-1h10c0.5,0,1-0.4,1-1V1C24,0.4,23.6,0,23,0z"/></g><g transform="translate(0,247.5)" fill="#000000">
<g transform="translate(315,99) scale(4.12)"><rect width="6" height="6"/></g>
<g transform="translate(339,99) scale(4.12)"><rect width="6" height="6"/></g>
<g transform="translate(363,99) scale(4.12)"><rect width="6" height="6"/></g>
<g transform="translate(387,99) scale(4.12)"><rect width="6" height="6"/></g>
<g transform="translate(411,99) scale(4.12)"><rect width="6" height="6"/></g>
<g transform="translate(483,99) scale(4.12)"><rect width="6" height="6"/></g>
<g transform="translate(531,99) scale(4.12)"><rect width="6" height="6"/></g>
<g transform="translate(555,99) scale(4.12)"><rect width="6" height="6"/></g>
<g transform="translate(579,99) scale(4.12)"><rect width="6" height="6"/></g>
<g transform="translate(603,99) scale(4.12)"><rect width="6" height="6"/></g>
<g transform="translate(651,99) scale(4.12)"><rect width="6" height="6"/></g>
<g transform="translate(315,123) scale(4.12)"><rect width="6" height="6"/></g>
<g transform="translate(339,123) scale(4.12)"><rect width="6" height="6"/></g>
<g transform="translate(387,123) scale(4.12)"><rect width="6" height="6"/></g>
<g transform="translate(411,123) scale(4.12)"><rect width="6" height="6"/></g>
<g transform="translate(435,123) scale(4.12)"><rect width="6" height="6"/></g>
<g transform="translate(459,123) scale(4.12)"><rect width="6" height="6"/></g>
<g transform="translate(507,123) scale(4.12)"><rect width="6" height="6"/></g>
<g transform="translate(531,123) scale(4.12)"><rect width="6" height="6"/></g>
<g transform="translate(579,123) scale(4.12)"><rect width="6" height="6"/></g>
<g transform="translate(627,123) scale(4.12)"><rect width="6" height="6"/></g>
<g transform="translate(675,123) scale(4.12)"><rect width="6" height="6"/></g>
<g transform="translate(291,147) scale(4.12)"><rect width="6" height="6"/></g>
<g transform="translate(315,147) scale(4.12)"><rect width="6" height="6"/></g>
<g transform="translate(339,147) scale(4.12)"><rect width="6" height="6"/></g>
<g transform="translate(411,147) scale(4.12)"><rect width="6" height="6"/></g>
<g transform="translate(459,147) scale(4.12)"><rect width="6" height="6"/></g>
<g transform="translate(483,147) scale(4.12)"><rect width="6" height="6"/></g>
<g transform="translate(555,147) scale(4.12)"><rect width="6" height="6"/></g>
<g transform="translate(579,147) scale(4.12)"><rect width="6" height="6"/></g>
<g transform="translate(603,147) scale(4.12)"><rect width="6" height="6"/></g>
<g transform="translate(627,147) scale(4.12)"><rect width="6" height="6"/></g>
<g transform="translate(651,147) scale(4.12)"><rect width="6" height="6"/></g>
<g transform="translate(291,171) scale(4.12)"><rect width="6" height="6"/></g>
<g transform="translate(339,171) scale(4.12)"><rect width="6" height="6"/></g>
<g transform="translate(435,171) scale(4.12)"><rect width="6" height="6"/></g>
<g transform="translate(459,171) scale(4.12)"><rect width="6" height="6"/></g>
<g transform="translate(483,171) scale(4.12)"><rect width="6" height="6"/></g>
<g transform="translate(507,171) scale(4.12)"><rect width="6" height="6"/></g>
<g transform="translate(555,171) scale(4.12)"><rect width="6" height="6"/></g>
<g transform="translate(603,171) scale(4.12)"><rect width="6" height="6"/></g>
<g transform="translate(627,171) scale(4.12)"><rect width="6" height="6"/></g>
<g transform="translate(291,195) scale(4.12)"><rect width="6" height="6"/></g>
<g transform="translate(315,195) scale(4.12)"><rect width="6" height="6"/></g>
<g transform="translate(339,195) scale(4.12)"><rect width="6" height="6"/></g>
<g transform="translate(459,195) scale(4.12)"><rect width="6" height="6"/></g>
<g transform="translate(675,195) scale(4.12)"><rect width="6" height="6"/></g>
<g transform="translate(291,219) scale(4.12)"><rect width="6" height="6"/></g>
<g transform="translate(339,219) scale(4.12)"><rect width="6" height="6"/></g>
<g transform="translate(435,219) scale(4.12)"><rect width="6" height="6"/></g>
<g transform="translate(459,219) scale(4.12)"><rect width="6" height="6"/></g>
<g transform="translate(483,219) scale(4.12)"><rect width="6" height="6"/></g>
<g transform="translate(627,219) scale(4.12)"><rect width="6" height="6"/></g>
<g transform="translate(675,219) scale(4.12)"><rect width="6" height="6"/></g>
<g transform="translate(291,243) scale(4.12)"><rect width="6" height="6"/></g>
<g transform="translate(339,243) scale(4.12)"><rect width="6" height="6"/></g>
<g transform="translate(387,243) scale(4.12)"><rect width="6" height="6"/></g>
<g transform="translate(435,243) scale(4.12)"><rect width="6" height="6"/></g>
<g transform="translate(483,243) scale(4.12)"><rect width="6" height="6"/></g>
<g transform="translate(531,243) scale(4.12)"><rect width="6" height="6"/></g>
<g transform="translate(579,243) scale(4.12)"><rect width="6" height="6"/></g>
<g transform="translate(627,243) scale(4.12)"><rect width="6" height="6"/></g>
<g transform="translate(675,243) scale(4.12)"><rect width="6" height="6"/></g>
<g transform="translate(291,267) scale(4.12)"><rect width="6" height="6"/></g>
<g transform="translate(315,267) scale(4.12)"><rect width="6" height="6"/></g>
<g transform="translate(363,267) scale(4.12)"><rect width="6" height="6"/></g>
<g transform="translate(435,267) scale(4.12)"><rect width="6" height="6"/></g>
<g transform="translate(459,267) scale(4.12)"><rect width="6" height="6"/></g>
<g transform="translate(555,267) scale(4.12)"><rect width="6" height="6"/></g>
<g transform="translate(603,267) scale(4.12)"><rect width="6" height="6"/></g>
<g transform="translate(627,267) scale(4.12)"><rect width="6" height="6"/></g>
<g transform="translate(651,267) scale(4.12)"><rect width="6" height="6"/></g>
<g transform="translate(99,291) scale(4.12)"><rect width="6" height="6"/></g>
<g transform="translate(147,291) scale(4.12)"><rect width="6" height="6"/></g>
<g transform="translate(171,291) scale(4.12)"><rect width="6" height="6"/></g>
<g transform="translate(195,291) scale(4.12)"><rect width="6" height="6"/></g>
<g transform="translate(219,291) scale(4.12)"><rect width="6" height="6"/></g>
<g transform="translate(243,291) scale(4.12)"><rect width="6" height="6"/></g>
<g transform="translate(387,291) scale(4.12)"><rect width="6" height="6"/></g>
<g transform="translate(411,291) scale(4.12)"><rect width="6" height="6"/></g>
<g transform="translate(435,291) scale(4.12)"><rect width="6" height="6"/></g>
<g transform="translate(459,291) scale(4.12)"><rect width="6" height="6"/></g>
<g transform="translate(507,291) scale(4.12)"><rect width="6" height="6"/></g>
<g transform="translate(627,291) scale(4.12)"><rect width="6" height="6"/></g>
<g transform="translate(723,291) scale(4.12)"><rect width="6" height="6"/></g>
<g transform="translate(747,291) scale(4.12)"><rect width="6" height="6"/></g>
<g transform="translate(771,291) scale(4.12)"><rect width="6" height="6"/></g>
<g transform="translate(795,291) scale(4.12)"><rect width="6" height="6"/></g>
<g transform="translate(819,291) scale(4.12)"><rect width="6" height="6"/></g>
<g transform="translate(195,315) scale(4.12)"><rect width="6" height="6"/></g>
<g transform="translate(219,315) scale(4.12)"><rect width="6" height="6"/></g>
<g transform="translate(267,315) scale(4.12)"><rect width="6" height="6"/></g>
<g transform="translate(435,315) scale(4.12)"><rect width="6" height="6"/></g>
<g transform="translate(483,315) scale(4.12)"><rect width="6" height="6"/></g>
<g transform="translate(507,315) scale(4.12)"><rect width="6" height="6"/></g>
<g transform="translate(555,315) scale(4.12)"><rect width="6" height="6"/></g>
<g transform="translate(603,315) scale(4.12)"><rect width="6" height="6"/></g>
<g transform="translate(627,315) scale(4.12)"><rect width="6" height="6"/></g>
<g transform="translate(651,315) scale(4.12)"><rect width="6" height="6"/></g>
<g transform="translate(723,315) scale(4.12)"><rect width="6" height="6"/></g>
<g transform="translate(747,315) scale(4.12)"><rect width="6" height="6"/></g>
<g transform="translate(795,315) scale(4.12)"><rect width="6" height="6"/></g>
<g transform="translate(819,315) scale(4.12)"><rect width="6" height="6"/></g>
<g transform="translate(843,315) scale(4.12)"><rect width="6" height="6"/></g>
<g transform="translate(867,315) scale(4.12)"><rect width="6" height="6"/></g>
<g transform="translate(99,339) scale(4.12)"><rect width="6" height="6"/></g>
<g transform="translate(123,339) scale(4.12)"><rect width="6" height="6"/></g>
<g transform="translate(147,339) scale(4.12)"><rect width="6" height="6"/></g>
<g transform="translate(171,339) scale(4.12)"><rect width="6" height="6"/></g>
<g transform="translate(243,339) scale(4.12)"><rect width="6" height="6"/></g>
<g transform="translate(363,339) scale(4.12)"><rect width="6" height="6"/></g>
<g transform="translate(459,339) scale(4.12)"><rect width="6" height="6"/></g>
<g transform="translate(483,339) scale(4.12)"><rect width="6" height="6"/></g>
<g transform="translate(531,339) scale(4.12)"><rect width="6" height="6"/></g>
<g transform="translate(627,339) scale(4.12)"><rect width="6" height="6"/></g>
<g transform="translate(675,339) scale(4.12)"><rect width="6" height="6"/></g>
<g transform="translate(771,339) scale(4.12)"><rect width="6" height="6"/></g>
<g transform="translate(819,339) scale(4.12)"><rect width="6" height="6"/></g>
<g transform="translate(843,339) scale(4.12)"><rect width="6" height="6"/></g>
<g transform="translate(99,363) scale(4.12)"><rect width="6" height="6"/></g>
<g transform="translate(123,363) scale(4.12)"><rect width="6" height="6"/></g>
<g transform="translate(195,363) scale(4.12)"><rect width="6" height="6"/></g>
<g transform="translate(339,363) scale(4.12)"><rect width="6" height="6"/></g>
<g transform="translate(363,363) scale(4.12)"><rect width="6" height="6"/></g>
<g transform="translate(387,363) scale(4.12)"><rect width="6" height="6"/></g>
<g transform="translate(435,363) scale(4.12)"><rect width="6" height="6"/></g>
<g transform="translate(483,363) scale(4.12)"><rect width="6" height="6"/></g>
<g transform="translate(555,363) scale(4.12)"><rect width="6" height="6"/></g>
<g transform="translate(579,363) scale(4.12)"><rect width="6" height="6"/></g>
<g transform="translate(603,363) scale(4.12)"><rect width="6" height="6"/></g>
<g transform="translate(651,363) scale(4.12)"><rect width="6" height="6"/></g>
<g transform="translate(699,363) scale(4.12)"><rect width="6" height="6"/></g>
<g transform="translate(723,363) scale(4.12)"><rect width="6" height="6"/></g>
<g transform="translate(771,363) scale(4.12)"><rect width="6" height="6"/></g>
<g transform="translate(795,363) scale(4.12)"><rect width="6" height="6"/></g>
<g transform="translate(819,363) scale(4.12)"><rect width="6" height="6"/></g>
<g transform="translate(99,387) scale(4.12)"><rect width="6" height="6"/></g>
<g transform="translate(123,387) scale(4.12)"><rect width="6" height="6"/></g>
<g transform="translate(171,387) scale(4.12)"><rect width="6" height="6"/></g>
<g transform="translate(195,387) scale(4.12)"><rect width="6" height="6"/></g>
<g transform="translate(219,387) scale(4.12)"><rect width="6" height="6"/></g>
<g transform="translate(243,387) scale(4.12)"><rect width="6" height="6"/></g>
<g transform="translate(315,387) scale(4.12)"><rect width="6" height="6"/></g>
<g transform="translate(339,387) scale(4.12)"><rect width="6" height="6"/></g>
<g transform="translate(387,387) scale(4.12)"><rect width="6" height="6"/></g>
<g transform="translate(531,387) scale(4.12)"><rect width="6" height="6"/></g>
<g transform="translate(555,387) scale(4.12)"><rect width="6" height="6"/></g>
<g transform="translate(579,387) scale(4.12)"><rect width="6" height="6"/></g>
<g transform="translate(603,387) scale(4.12)"><rect width="6" height="6"/></g>
<g transform="translate(627,387) scale(4.12)"><rect width="6" height="6"/></g>
<g transform="translate(651,387) scale(4.12)"><rect width="6" height="6"/></g>
<g transform="translate(675,387) scale(4.12)"><rect width="6" height="6"/></g>
<g transform="translate(747,387) scale(4.12)"><rect width="6" height="6"/></g>
<g transform="translate(771,387) scale(4.12)"><rect width="6" height="6"/></g>
<g transform="translate(795,387) scale(4.12)"><rect width="6" height="6"/></g>
<g transform="translate(867,387) scale(4.12)"><rect width="6" height="6"/></g>
<g transform="translate(99,411) scale(4.12)"><rect width="6" height="6"/></g>
<g transform="translate(123,411) scale(4.12)"><rect width="6" height="6"/></g>
<g transform="translate(195,411) scale(4.12)"><rect width="6" height="6"/></g>
<g transform="translate(219,411) scale(4.12)"><rect width="6" height="6"/></g>
<g transform="translate(315,411) scale(4.12)"><rect width="6" height="6"/></g>
<g transform="translate(339,411) scale(4.12)"><rect width="6" height="6"/></g>
<g transform="translate(387,411) scale(4.12)"><rect width="6" height="6"/></g>
<g transform="translate(435,411) scale(4.12)"><rect width="6" height="6"/></g>
<g transform="translate(459,411) scale(4.12)"><rect width="6" height="6"/></g>
<g transform="translate(483,411) scale(4.12)"><rect width="6" height="6"/></g>
<g transform="translate(531,411) scale(4.12)"><rect width="6" height="6"/></g>
<g transform="translate(555,411) scale(4.12)"><rect width="6" height="6"/></g>
<g transform="translate(627,411) scale(4.12)"><rect width="6" height="6"/></g>
<g transform="translate(651,411) scale(4.12)"><rect width="6" height="6"/></g>
<g transform="translate(675,411) scale(4.12)"><rect width="6" height="6"/></g>
<g transform="translate(747,411) scale(4.12)"><rect width="6" height="6"/></g>
<g transform="translate(843,411) scale(4.12)"><rect width="6" height="6"/></g>
<g transform="translate(867,411) scale(4.12)"><rect width="6" height="6"/></g>
<g transform="translate(171,435) scale(4.12)"><rect width="6" height="6"/></g>
<g transform="translate(195,435) scale(4.12)"><rect width="6" height="6"/></g>
<g transform="translate(243,435) scale(4.12)"><rect width="6" height="6"/></g>
<g transform="translate(267,435) scale(4.12)"><rect width="6" height="6"/></g>
<g transform="translate(291,435) scale(4.12)"><rect width="6" height="6"/></g>
<g transform="translate(387,435) scale(4.12)"><rect width="6" height="6"/></g>
<g transform="translate(435,435) scale(4.12)"><rect width="6" height="6"/></g>
<g transform="translate(507,435) scale(4.12)"><rect width="6" height="6"/></g>
<g transform="translate(555,435) scale(4.12)"><rect width="6" height="6"/></g>
<g transform="translate(603,435) scale(4.12)"><rect width="6" height="6"/></g>
<g transform="translate(699,435) scale(4.12)"><rect width="6" height="6"/></g>
<g transform="translate(723,435) scale(4.12)"><rect width="6" height="6"/></g>
<g transform="translate(771,435) scale(4.12)"><rect width="6" height="6"/></g>
<g transform="translate(819,435) scale(4.12)"><rect width="6" height="6"/></g>
<g transform="translate(843,435) scale(4.12)"><rect width="6" height="6"/></g>
<g transform="translate(99,459) scale(4.12)"><rect width="6" height="6"/></g>
<g transform="translate(123,459) scale(4.12)"><rect width="6" height="6"/></g>
<g transform="translate(171,459) scale(4.12)"><rect width="6" height="6"/></g>
<g transform="translate(267,459) scale(4.12)"><rect width="6" height="6"/></g>
<g transform="translate(291,459) scale(4.12)"><rect width="6" height="6"/></g>
<g transform="translate(315,459) scale(4.12)"><rect width="6" height="6"/></g>
<g transform="translate(387,459) scale(4.12)"><rect width="6" height="6"/></g>
<g transform="translate(435,459) scale(4.12)"><rect width="6" height="6"/></g>
<g transform="translate(483,459) scale(4.12)"><rect width="6" height="6"/></g>
<g transform="translate(531,459) scale(4.12)"><rect width="6" height="6"/></g>
<g transform="translate(555,459) scale(4.12)"><rect width="6" height="6"/></g>
<g transform="translate(579,459) scale(4.12)"><rect width="6" height="6"/></g>
<g transform="translate(603,459) scale(4.12)"><rect width="6" height="6"/></g>
<g transform="translate(651,459) scale(4.12)"><rect width="6" height="6"/></g>
<g transform="translate(699,459) scale(4.12)"><rect width="6" height="6"/></g>
<g transform="translate(723,459) scale(4.12)"><rect width="6" height="6"/></g>
<g transform="translate(747,459) scale(4.12)"><rect width="6" height="6"/></g>
<g transform="translate(795,459) scale(4.12)"><rect width="6" height="6"/></g>
<g transform="translate(819,459) scale(4.12)"><rect width="6" height="6"/></g>
<g transform="translate(99,483) scale(4.12)"><rect width="6" height="6"/></g>
<g transform="translate(123,483) scale(4.12)"><rect width="6" height="6"/></g>
<g transform="translate(147,483) scale(4.12)"><rect width="6" height="6"/></g>
<g transform="translate(219,483) scale(4.12)"><rect width="6" height="6"/></g>
<g transform="translate(243,483) scale(4.12)"><rect width="6" height="6"/></g>
<g transform="translate(267,483) scale(4.12)"><rect width="6" height="6"/></g>
<g transform="translate(291,483) scale(4.12)"><rect width="6" height="6"/></g>
<g transform="translate(315,483) scale(4.12)"><rect width="6" height="6"/></g>
<g transform="translate(387,483) scale(4.12)"><rect width="6" height="6"/></g>
<g transform="translate(435,483) scale(4.12)"><rect width="6" height="6"/></g>
<g transform="translate(507,483) scale(4.12)"><rect width="6" height="6"/></g>
<g transform="translate(627,483) scale(4.12)"><rect width="6" height="6"/></g>
<g transform="translate(675,483) scale(4.12)"><rect width="6" height="6"/></g>
<g transform="translate(699,483) scale(4.12)"><rect width="6" height="6"/></g>
<g transform="translate(747,483) scale(4.12)"><rect width="6" height="6"/></g>
<g transform="translate(771,483) scale(4.12)"><rect width="6" height="6"/></g>
<g transform="translate(867,483) scale(4.12)"><rect width="6" height="6"/></g>
<g transform="translate(171,507) scale(4.12)"><rect width="6" height="6"/></g>
<g transform="translate(195,507) scale(4.12)"><rect width="6" height="6"/></g>
<g transform="translate(219,507) scale(4.12)"><rect width="6" height="6"/></g>
<g transform="translate(291,507) scale(4.12)"><rect width="6" height="6"/></g>
<g transform="translate(315,507) scale(4.12)"><rect width="6" height="6"/></g>
<g transform="translate(339,507) scale(4.12)"><rect width="6" height="6"/></g>
<g transform="translate(411,507) scale(4.12)"><rect width="6" height="6"/></g>
<g transform="translate(531,507) scale(4.12)"><rect width="6" height="6"/></g>
<g transform="translate(555,507) scale(4.12)"><rect width="6" height="6"/></g>
<g transform="translate(579,507) scale(4.12)"><rect width="6" height="6"/></g>
<g transform="translate(603,507) scale(4.12)"><rect width="6" height="6"/></g>
<g transform="translate(627,507) scale(4.12)"><rect width="6" height="6"/></g>
<g transform="translate(651,507) scale(4.12)"><rect width="6" height="6"/></g>
<g transform="translate(675,507) scale(4.12)"><rect width="6" height="6"/></g>
<g transform="translate(723,507) scale(4.12)"><rect width="6" height="6"/></g>
<g transform="translate(747,507) scale(4.12)"><rect width="6" height="6"/></g>
<g transform="translate(795,507) scale(4.12)"><rect width="6" height="6"/></g>
<g transform="translate(819,507) scale(4.12)"><rect width="6" height="6"/></g>
<g transform="translate(843,507) scale(4.12)"><rect width="6" height="6"/></g>
<g transform="translate(867,507) scale(4.12)"><rect width="6" height="6"/></g>
<g transform="translate(99,531) scale(4.12)"><rect width="6" height="6"/></g>
<g transform="translate(219,531) scale(4.12)"><rect width="6" height="6"/></g>
<g transform="translate(243,531) scale(4.12)"><rect width="6" height="6"/></g>
<g transform="translate(267,531) scale(4.12)"><rect width="6" height="6"/></g>
<g transform="translate(315,531) scale(4.12)"><rect width="6" height="6"/></g>
<g transform="translate(363,531) scale(4.12)"><rect width="6" height="6"/></g>
<g transform="translate(411,531) scale(4.12)"><rect width="6" height="6"/></g>
<g transform="translate(459,531) scale(4.12)"><rect width="6" height="6"/></g>
<g transform="translate(483,531) scale(4.12)"><rect width="6" height="6"/></g>
<g transform="translate(531,531) scale(4.12)"><rect width="6" height="6"/></g>
<g transform="translate(579,531) scale(4.12)"><rect width="6" height="6"/></g>
<g transform="translate(675,531) scale(4.12)"><rect width="6" height="6"/></g>
<g transform="translate(747,531) scale(4.12)"><rect width="6" height="6"/></g>
<g transform="translate(771,531) scale(4.12)"><rect width="6" height="6"/></g>
<g transform="translate(819,531) scale(4.12)"><rect width="6" height="6"/></g>
<g transform="translate(843,531) scale(4.12)"><rect width="6" height="6"/></g>
<g transform="translate(123,555) scale(4.12)"><rect width="6" height="6"/></g>
<g transform="translate(147,555) scale(4.12)"><rect width="6" height="6"/></g>
<g transform="translate(171,555) scale(4.12)"><rect width="6" height="6"/></g>
<g transform="translate(195,555) scale(4.12)"><rect width="6" height="6"/></g>
<g transform="translate(267,555) scale(4.12)"><rect width="6" height="6"/></g>
<g transform="translate(315,555) scale(4.12)"><rect width="6" height="6"/></g>
<g transform="translate(387,555) scale(4.12)"><rect width="6" height="6"/></g>
<g transform="translate(507,555) scale(4.12)"><rect width="6" height="6"/></g>
<g transform="translate(531,555) scale(4.12)"><rect width="6" height="6"/></g>
<g transform="translate(675,555) scale(4.12)"><rect width="6" height="6"/></g>
<g transform="translate(699,555) scale(4.12)"><rect width="6" height="6"/></g>
<g transform="translate(723,555) scale(4.12)"><rect width="6" height="6"/></g>
<g transform="translate(747,555) scale(4.12)"><rect width="6" height="6"/></g>
<g transform="translate(771,555) scale(4.12)"><rect width="6" height="6"/></g>
<g transform="translate(795,555) scale(4.12)"><rect width="6" height="6"/></g>
<g transform="translate(819,555) scale(4.12)"><rect width="6" height="6"/></g>
<g transform="translate(843,555) scale(4.12)"><rect width="6" height="6"/></g>
<g transform="translate(867,555) scale(4.12)"><rect width="6" height="6"/></g>
<g transform="translate(243,579) scale(4.12)"><rect width="6" height="6"/></g>
<g transform="translate(267,579) scale(4.12)"><rect width="6" height="6"/></g>
<g transform="translate(315,579) scale(4.12)"><rect width="6" height="6"/></g>
<g transform="translate(339,579) scale(4.12)"><rect width="6" height="6"/></g>
<g transform="translate(363,579) scale(4.12)"><rect width="6" height="6"/></g>
<g transform="translate(459,579) scale(4.12)"><rect width="6" height="6"/></g>
<g transform="translate(507,579) scale(4.12)"><rect width="6" height="6"/></g>
<g transform="translate(531,579) scale(4.12)"><rect width="6" height="6"/></g>
<g transform="translate(555,579) scale(4.12)"><rect width="6" height="6"/></g>
<g transform="translate(603,579) scale(4.12)"><rect width="6" height="6"/></g>
<g transform="translate(627,579) scale(4.12)"><rect width="6" height="6"/></g>
<g transform="translate(747,579) scale(4.12)"><rect width="6" height="6"/></g>
<g transform="translate(771,579) scale(4.12)"><rect width="6" height="6"/></g>
<g transform="translate(795,579) scale(4.12)"><rect width="6" height="6"/></g>
<g transform="translate(843,579) scale(4.12)"><rect width="6" height="6"/></g>
<g transform="translate(867,579) scale(4.12)"><rect width="6" height="6"/></g>
<g transform="translate(99,603) scale(4.12)"><rect width="6" height="6"/></g>
<g transform="translate(171,603) scale(4.12)"><rect width="6" height="6"/></g>
<g transform="translate(219,603) scale(4.12)"><rect width="6" height="6"/></g>
<g transform="translate(291,603) scale(4.12)"><rect width="6" height="6"/></g>
<g transform="translate(387,603) scale(4.12)"><rect width="6" height="6"/></g>
<g transform="translate(411,603) scale(4.12)"><rect width="6" height="6"/></g>
<g transform="translate(435,603) scale(4.12)"><rect width="6" height="6"/></g>
<g transform="translate(459,603) scale(4.12)"><rect width="6" height="6"/></g>
<g transform="translate(579,603) scale(4.12)"><rect width="6" height="6"/></g>
<g transform="translate(627,603) scale(4.12)"><rect width="6" height="6"/></g>
<g transform="translate(651,603) scale(4.12)"><rect width="6" height="6"/></g>
<g transform="translate(723,603) scale(4.12)"><rect width="6" height="6"/></g>
<g transform="translate(771,603) scale(4.12)"><rect width="6" height="6"/></g>
<g transform="translate(795,603) scale(4.12)"><rect width="6" height="6"/></g>
<g transform="translate(819,603) scale(4.12)"><rect width="6" height="6"/></g>
<g transform="translate(867,603) scale(4.12)"><rect width="6" height="6"/></g>
<g transform="translate(99,627) scale(4.12)"><rect width="6" height="6"/></g>
<g transform="translate(147,627) scale(4.12)"><rect width="6" height="6"/></g>
<g transform="translate(171,627) scale(4.12)"><rect width="6" height="6"/></g>
<g transform="translate(195,627) scale(4.12)"><rect width="6" height="6"/></g>
<g transform="translate(219,627) scale(4.12)"><rect width="6" height="6"/></g>
<g transform="translate(243,627) scale(4.12)"><rect width="6" height="6"/></g>
<g transform="translate(267,627) scale(4.12)"><rect width="6" height="6"/></g>
<g transform="translate(363,627) scale(4.12)"><rect width="6" height="6"/></g>
<g transform="translate(387,627) scale(4.12)"><rect width="6" height="6"/></g>
<g transform="translate(435,627) scale(4.12)"><rect width="6" height="6"/></g>
<g transform="translate(459,627) scale(4.12)"><rect width="6" height="6"/></g>
<g transform="translate(555,627) scale(4.12)"><rect width="6" height="6"/></g>
<g transform="translate(603,627) scale(4.12)"><rect width="6" height="6"/></g>
<g transform="translate(651,627) scale(4.12)"><rect width="6" height="6"/></g>
<g transform="translate(675,627) scale(4.12)"><rect width="6" height="6"/></g>
<g transform="translate(747,627) scale(4.12)"><rect width="6" height="6"/></g>
<g transform="translate(843,627) scale(4.12)"><rect width="6" height="6"/></g>
<g transform="translate(99,651) scale(4.12)"><rect width="6" height="6"/></g>
<g transform="translate(147,651) scale(4.12)"><rect width="6" height="6"/></g>
<g transform="translate(171,651) scale(4.12)"><rect width="6" height="6"/></g>
<g transform="translate(267,651) scale(4.12)"><rect width="6" height="6"/></g>
<g transform="translate(435,651) scale(4.12)"><rect width="6" height="6"/></g>
<g transform="translate(459,651) scale(4.12)"><rect width="6" height="6"/></g>
<g transform="translate(555,651) scale(4.12)"><rect width="6" height="6"/></g>
<g transform="translate(579,651) scale(4.12)"><rect width="6" height="6"/></g>
<g transform="translate(603,651) scale(4.12)"><rect width="6" height="6"/></g>
<g transform="translate(651,651) scale(4.12)"><rect width="6" height="6"/></g>
<g transform="translate(675,651) scale(4.12)"><rect width="6" height="6"/></g>
<g transform="translate(699,651) scale(4.12)"><rect width="6" height="6"/></g>
<g transform="translate(747,651) scale(4.12)"><rect width="6" height="6"/></g>
<g transform="translate(795,651) scale(4.12)"><rect width="6" height="6"/></g>
<g transform="translate(819,651) scale(4.12)"><rect width="6" height="6"/></g>
<g transform="translate(99,675) scale(4.12)"><rect width="6" height="6"/></g>
<g transform="translate(147,675) scale(4.12)"><rect width="6" height="6"/></g>
<g transform="translate(171,675) scale(4.12)"><rect width="6" height="6"/></g>
<g transform="translate(243,675) scale(4.12)"><rect width="6" height="6"/></g>
<g transform="translate(267,675) scale(4.12)"><rect width="6" height="6"/></g>
<g transform="translate(315,675) scale(4.12)"><rect width="6" height="6"/></g>
<g transform="translate(339,675) scale(4.12)"><rect width="6" height="6"/></g>
<g transform="translate(363,675) scale(4.12)"><rect width="6" height="6"/></g>
<g transform="translate(411,675) scale(4.12)"><rect width="6" height="6"/></g>
<g transform="translate(459,675) scale(4.12)"><rect width="6" height="6"/></g>
<g transform="translate(483,675) scale(4.12)"><rect width="6" height="6"/></g>
<g transform="translate(507,675) scale(4.12)"><rect width="6" height="6"/></g>
<g transform="translate(627,675) scale(4.12)"><rect width="6" height="6"/></g>
<g transform="translate(675,675) scale(4.12)"><rect width="6" height="6"/></g>
<g transform="translate(699,675) scale(4.12)"><rect width="6" height="6"/></g>
<g transform="translate(723,675) scale(4.12)"><rect width="6" height="6"/></g>
<g transform="translate(747,675) scale(4.12)"><rect width="6" height="6"/></g>
<g transform="translate(771,675) scale(4.12)"><rect width="6" height="6"/></g>
<g transform="translate(795,675) scale(4.12)"><rect width="6" height="6"/></g>
<g transform="translate(843,675) scale(4.12)"><rect width="6" height="6"/></g>
<g transform="translate(291,699) scale(4.12)"><rect width="6" height="6"/></g>
<g transform="translate(363,699) scale(4.12)"><rect width="6" height="6"/></g>
<g transform="translate(387,699) scale(4.12)"><rect width="6" height="6"/></g>
<g transform="translate(411,699) scale(4.12)"><rect width="6" height="6"/></g>
<g transform="translate(483,699) scale(4.12)"><rect width="6" height="6"/></g>
<g transform="translate(507,699) scale(4.12)"><rect width="6" height="6"/></g>
<g transform="translate(531,699) scale(4.12)"><rect width="6" height="6"/></g>
<g transform="translate(555,699) scale(4.12)"><rect width="6" height="6"/></g>
<g transform="translate(579,699) scale(4.12)"><rect width="6" height="6"/></g>
<g transform="translate(603,699) scale(4.12)"><rect width="6" height="6"/></g>
<g transform="translate(627,699) scale(4.12)"><rect width="6" height="6"/></g>
<g transform="translate(651,699) scale(4.12)"><rect width="6" height="6"/></g>
<g transform="translate(675,699) scale(4.12)"><rect width="6" height="6"/></g>
<g transform="translate(771,699) scale(4.12)"><rect width="6" height="6"/></g>
<g transform="translate(819,699) scale(4.12)"><rect width="6" height="6"/></g>
<g transform="translate(867,699) scale(4.12)"><rect width="6" height="6"/></g>
<g transform="translate(339,723) scale(4.12)"><rect width="6" height="6"/></g>
<g transform="translate(363,723) scale(4.12)"><rect width="6" height="6"/></g>
<g transform="translate(411,723) scale(4.12)"><rect width="6" height="6"/></g>
<g transform="translate(459,723) scale(4.12)"><rect width="6" height="6"/></g>
<g transform="translate(507,723) scale(4.12)"><rect width="6" height="6"/></g>
<g transform="translate(627,723) scale(4.12)"><rect width="6" height="6"/></g>
<g transform="translate(651,723) scale(4.12)"><rect width="6" height="6"/></g>
<g transform="translate(675,723) scale(4.12)"><rect width="6" height="6"/></g>
<g transform="translate(723,723) scale(4.12)"><rect width="6" height="6"/></g>
<g transform="translate(771,723) scale(4.12)"><rect width="6" height="6"/></g>
<g transform="translate(819,723) scale(4.12)"><rect width="6" height="6"/></g>
<g transform="translate(843,723) scale(4.12)"><rect width="6" height="6"/></g>
<g transform="translate(291,747) scale(4.12)"><rect width="6" height="6"/></g>
<g transform="translate(315,747) scale(4.12)"><rect width="6" height="6"/></g>
<g transform="translate(339,747) scale(4.12)"><rect width="6" height="6"/></g>
<g transform="translate(387,747) scale(4.12)"><rect width="6" height="6"/></g>
<g transform="translate(435,747) scale(4.12)"><rect width="6" height="6"/></g>
<g transform="translate(459,747) scale(4.12)"><rect width="6" height="6"/></g>
<g transform="translate(483,747) scale(4.12)"><rect width="6" height="6"/></g>
<g transform="translate(531,747) scale(4.12)"><rect width="6" height="6"/></g>
<g transform="translate(555,747) scale(4.12)"><rect width="6" height="6"/></g>
<g transform="translate(579,747) scale(4.12)"><rect width="6" height="6"/></g>
<g transform="translate(603,747) scale(4.12)"><rect width="6" height="6"/></g>
<g transform="translate(627,747) scale(4.12)"><rect width="6" height="6"/></g>
<g transform="translate(651,747) scale(4.12)"><rect width="6" height="6"/></g>
<g transform="translate(675,747) scale(4.12)"><rect width="6" height="6"/></g>
<g transform="translate(771,747) scale(4.12)"><rect width="6" height="6"/></g>
<g transform="translate(795,747) scale(4.12)"><rect width="6" height="6"/></g>
<g transform="translate(819,747) scale(4.12)"><rect width="6" height="6"/></g>
<g transform="translate(867,747) scale(4.12)"><rect width="6" height="6"/></g>
<g transform="translate(291,771) scale(4.12)"><rect width="6" height="6"/></g>
<g transform="translate(315,771) scale(4.12)"><rect width="6" height="6"/></g>
<g transform="translate(339,771) scale(4.12)"><rect width="6" height="6"/></g>
<g transform="translate(363,771) scale(4.12)"><rect width="6" height="6"/></g>
<g transform="translate(387,771) scale(4.12)"><rect width="6" height="6"/></g>
<g transform="translate(411,771) scale(4.12)"><rect width="6" height="6"/></g>
<g transform="translate(435,771) scale(4.12)"><rect width="6" height="6"/></g>
<g transform="translate(459,771) scale(4.12)"><rect width="6" height="6"/></g>
<g transform="translate(507,771) scale(4.12)"><rect width="6" height="6"/></g>
<g transform="translate(531,771) scale(4.12)"><rect width="6" height="6"/></g>
<g transform="translate(555,771) scale(4.12)"><rect width="6" height="6"/></g>
<g transform="translate(579,771) scale(4.12)"><rect width="6" height="6"/></g>
<g transform="translate(603,771) scale(4.12)"><rect width="6" height="6"/></g>
<g transform="translate(627,771) scale(4.12)"><rect width="6" height="6"/></g>
<g transform="translate(675,771) scale(4.12)"><rect width="6" height="6"/></g>
<g transform="translate(699,771) scale(4.12)"><rect width="6" height="6"/></g>
<g transform="translate(723,771) scale(4.12)"><rect width="6" height="6"/></g>
<g transform="translate(747,771) scale(4.12)"><rect width="6" height="6"/></g>
<g transform="translate(771,771) scale(4.12)"><rect width="6" height="6"/></g>
<g transform="translate(795,771) scale(4.12)"><rect width="6" height="6"/></g>
<g transform="translate(843,771) scale(4.12)"><rect width="6" height="6"/></g>
<g transform="translate(291,795) scale(4.12)"><rect width="6" height="6"/></g>
<g transform="translate(387,795) scale(4.12)"><rect width="6" height="6"/></g>
<g transform="translate(411,795) scale(4.12)"><rect width="6" height="6"/></g>
<g transform="translate(435,795) scale(4.12)"><rect width="6" height="6"/></g>
<g transform="translate(459,795) scale(4.12)"><rect width="6" height="6"/></g>
<g transform="translate(483,795) scale(4.12)"><rect width="6" height="6"/></g>
<g transform="translate(507,795) scale(4.12)"><rect width="6" height="6"/></g>
<g transform="translate(603,795) scale(4.12)"><rect width="6" height="6"/></g>
<g transform="translate(675,795) scale(4.12)"><rect width="6" height="6"/></g>
<g transform="translate(699,795) scale(4.12)"><rect width="6" height="6"/></g>
<g transform="translate(771,795) scale(4.12)"><rect width="6" height="6"/></g>
<g transform="translate(819,795) scale(4.12)"><rect width="6" height="6"/></g>
<g transform="translate(867,795) scale(4.12)"><rect width="6" height="6"/></g>
<g transform="translate(291,819) scale(4.12)"><rect width="6" height="6"/></g>
<g transform="translate(339,819) scale(4.12)"><rect width="6" height="6"/></g>
<g transform="translate(363,819) scale(4.12)"><rect width="6" height="6"/></g>
<g transform="translate(387,819) scale(4.12)"><rect width="6" height="6"/></g>
<g transform="translate(411,819) scale(4.12)"><rect width="6" height="6"/></g>
<g transform="translate(435,819) scale(4.12)"><rect width="6" height="6"/></g>
<g transform="translate(507,819) scale(4.12)"><rect width="6" height="6"/></g>
<g transform="translate(675,819) scale(4.12)"><rect width="6" height="6"/></g>
<g transform="translate(699,819) scale(4.12)"><rect width="6" height="6"/></g>
<g transform="translate(723,819) scale(4.12)"><rect width="6" height="6"/></g>
<g transform="translate(747,819) scale(4.12)"><rect width="6" height="6"/></g>
<g transform="translate(315,843) scale(4.12)"><rect width="6" height="6"/></g>
<g transform="translate(339,843) scale(4.12)"><rect width="6" height="6"/></g>
<g transform="translate(363,843) scale(4.12)"><rect width="6" height="6"/></g>
<g transform="translate(459,843) scale(4.12)"><rect width="6" height="6"/></g>
<g transform="translate(531,843) scale(4.12)"><rect width="6" height="6"/></g>
<g transform="translate(555,843) scale(4.12)"><rect width="6" height="6"/></g>
<g transform="translate(579,843) scale(4.12)"><rect width="6" height="6"/></g>
<g transform="translate(603,843) scale(4.12)"><rect width="6" height="6"/></g>
<g transform="translate(675,843) scale(4.12)"><rect width="6" height="6"/></g>
<g transform="translate(771,843) scale(4.12)"><rect width="6" height="6"/></g>
<g transform="translate(795,843) scale(4.12)"><rect width="6" height="6"/></g>
<g transform="translate(819,843) scale(4.12)"><rect width="6" height="6"/></g>
<g transform="translate(291,867) scale(4.12)"><rect width="6" height="6"/></g>
<g transform="translate(315,867) scale(4.12)"><rect width="6" height="6"/></g>
<g transform="translate(363,867) scale(4.12)"><rect width="6" height="6"/></g>
<g transform="translate(387,867) scale(4.12)"><rect width="6" height="6"/></g>
<g transform="translate(411,867) scale(4.12)"><rect width="6" height="6"/></g>
<g transform="translate(483,867) scale(4.12)"><rect width="6" height="6"/></g>
<g transform="translate(507,867) scale(4.12)"><rect width="6" height="6"/></g>
<g transform="translate(651,867) scale(4.12)"><rect width="6" height="6"/></g>
<g transform="translate(675,867) scale(4.12)"><rect width="6" height="6"/></g>
<g transform="translate(699,867) scale(4.12)"><rect width="6" height="6"/></g>
<g transform="translate(723,867) scale(4.12)"><rect width="6" height="6"/></g>
<g transform="translate(747,867) scale(4.12)"><rect width="6" height="6"/></g>
<g transform="translate(819,867) scale(4.12)"><rect width="6" height="6"/></g>
<g transform="translate(843,867) scale(4.12)"><rect width="6" height="6"/></g>
<g transform="translate(99,99)"><g transform="scale(12)"><path d="M0,0v14h14V0H0z M12,12H2V2h10V12z"/></g></g>
<g transform="translate(723,99)"><g transform="scale(12)"><path d="M0,0v14h14V0H0z M12,12H2V2h10V12z"/></g></g>
<g transform="translate(99,723)"><g transform="scale(12)"><path d="M0,0v14h14V0H0z M12,12H2V2h10V12z"/></g></g>
<g transform="translate(147,147)"><g transform="scale(12)"><rect width="6" height="6"/></g></g>
<g transform="translate(771,147)"><g transform="scale(12)"><rect width="6" height="6"/></g></g>
<g transform="translate(147,771)"><g transform="scale(12)"><rect width="6" height="6"/></g></g>
</g><g transform="translate(215.78990228013,0) scale(1.3758957654723)"><path fill="#FFFFFF" d="M8.69140625,119.921875l0-45.01953125l-7.763671875,0l0-6.8359375l7.763671875,0l0-5.517578125q0-5.224609375,0.927734375-7.763671875q1.26953125-3.41796875,4.4677734375-5.5419921875t8.9599609375-2.1240234375q3.7109375,0,8.203125,0.87890625l-1.318359375,7.666015625q-2.734375-0.48828125-5.17578125-0.48828125q-4.00390625,0-5.6640625,1.708984375t-1.66015625,6.396484375l0,4.78515625l10.107421875,0l0,6.8359375l-10.107421875,0l0,45.01953125l-8.740234375,0z M69.873046875,103.22265625l9.08203125,1.123046875q-2.1484375,7.958984375-7.958984375,12.353515625t-14.84375,4.39453125q-11.376953125,0-18.0419921875-7.0068359375t-6.6650390625-19.6533203125q0-13.0859375,6.73828125-20.3125t17.48046875-7.2265625q10.400390625,0,16.9921875,7.080078125t6.591796875,19.921875q0,0.78125-0.048828125,2.34375l-38.671875,0q0.48828125,8.544921875,4.833984375,13.0859375t10.83984375,4.541015625q4.833984375,0,8.251953125-2.5390625t5.419921875-8.10546875z M41.015625,89.013671875l28.955078125,0q-0.5859375-6.54296875-3.3203125-9.814453125q-4.19921875-5.078125-10.888671875-5.078125q-6.0546875,0-10.1806640625,4.052734375t-4.5654296875,10.83984375z M125.48828125,103.22265625l9.08203125,1.123046875q-2.1484375,7.958984375-7.958984375,12.353515625t-14.84375,4.39453125q-11.376953125,0-18.0419921875-7.0068359375t-6.6650390625-19.6533203125q0-13.0859375,6.73828125-20.3125t17.48046875-7.2265625q10.400390625,0,16.9921875,7.080078125t6.591796875,19.921875q0,0.78125-0.048828125,2.34375l-38.671875,0q0.48828125,8.544921875,4.833984375,13.0859375t10.83984375,4.541015625q4.833984375,0,8.251953125-2.5390625t5.419921875-8.10546875z M96.630859375,89.013671875l28.955078125,0q-0.5859375-6.54296875-3.3203125-9.814453125q-4.19921875-5.078125-10.888671875-5.078125q-6.0546875,0-10.1806640625,4.052734375t-4.5654296875,10.83984375z M179.248046875,119.921875l0-6.54296875q-4.931640625,7.71484375-14.501953125,7.71484375q-6.201171875,0-11.4013671875-3.41796875t-8.056640625-9.5458984375t-2.8564453125-14.0869140625q0-7.763671875,2.587890625-14.0869140625t7.763671875-9.6923828125t11.572265625-3.369140625q4.6875,0,8.349609375,1.9775390625t5.95703125,5.1513671875l0-25.68359375l8.740234375,0l0,71.58203125l-8.154296875,0z M151.46484375,94.04296875q0,9.9609375,4.19921875,14.892578125t9.912109375,4.931640625q5.76171875,0,9.7900390625-4.7119140625t4.0283203125-14.3798828125q0-10.64453125-4.1015625-15.625t-10.107421875-4.98046875q-5.859375,0-9.7900390625,4.78515625t-3.9306640625,15.087890625z M209.326171875,119.921875l-8.154296875,0l0-71.58203125l8.7890625,0l0,25.537109375q5.56640625-6.982421875,14.208984375-6.982421875q4.78515625,0,9.0576171875,1.9287109375t7.03125,5.419921875t4.3212890625,8.4228515625t1.5625,10.546875q0,13.330078125-6.591796875,20.60546875t-15.8203125,7.275390625q-9.1796875,0-14.404296875-7.666015625l0,6.494140625z M209.228515625,93.603515625q0,9.326171875,2.5390625,13.4765625q4.150390625,6.787109375,11.23046875,6.787109375q5.76171875,0,9.9609375-5.0048828125t4.19921875-14.9169921875q0-10.15625-4.0283203125-14.990234375t-9.7412109375-4.833984375q-5.76171875,0-9.9609375,5.0048828125t-4.19921875,14.4775390625z M290.673828125,113.525390625q-4.8828125,4.150390625-9.3994140625,5.859375t-9.6923828125,1.708984375q-8.544921875,0-13.134765625-4.1748046875t-4.58984375-10.6689453125q0-3.80859375,1.7333984375-6.9580078125t4.541015625-5.0537109375t6.3232421875-2.880859375q2.587890625-0.68359375,7.8125-1.318359375q10.64453125-1.26953125,15.673828125-3.02734375q0.048828125-1.806640625,0.048828125-2.294921875q0-5.37109375-2.490234375-7.568359375q-3.369140625-2.978515625-10.009765625-2.978515625q-6.201171875,0-9.1552734375,2.1728515625t-4.3701171875,7.6904296875l-8.59375-1.171875q1.171875-5.517578125,3.857421875-8.9111328125t7.763671875-5.224609375t11.767578125-1.8310546875q6.640625,0,10.791015625,1.5625t6.103515625,3.9306640625t2.734375,5.9814453125q0.439453125,2.24609375,0.439453125,8.10546875l0,11.71875q0,12.255859375,0.5615234375,15.5029296875t2.2216796875,6.2255859375l-9.1796875,0q-1.3671875-2.734375-1.7578125-6.396484375z M289.94140625,93.896484375q-4.78515625,1.953125-14.35546875,3.3203125q-5.419921875,0.78125-7.666015625,1.7578125t-3.466796875,2.8564453125t-1.220703125,4.1748046875q0,3.515625,2.6611328125,5.859375t7.7880859375,2.34375q5.078125,0,9.033203125-2.2216796875t5.810546875-6.0791015625q1.416015625-2.978515625,1.416015625-8.7890625l0-3.22265625z M346.2890625,100.927734375l8.642578125,1.123046875q-1.416015625,8.935546875-7.2509765625,13.9892578125t-14.3310546875,5.0537109375q-10.64453125,0-17.1142578125-6.9580078125t-6.4697265625-19.9462890625q0-8.3984375,2.783203125-14.697265625t8.4716796875-9.4482421875t12.3779296875-3.1494140625q8.447265625,0,13.818359375,4.2724609375t6.884765625,12.1337890625l-8.544921875,1.318359375q-1.220703125-5.224609375-4.3212890625-7.861328125t-7.4951171875-2.63671875q-6.640625,0-10.791015625,4.7607421875t-4.150390625,15.0634765625q0,10.44921875,4.00390625,15.185546875t10.44921875,4.736328125q5.17578125,0,8.642578125-3.173828125t4.39453125-9.765625z M362.5,119.921875l0-71.58203125l8.7890625,0l0,40.8203125l20.80078125-21.09375l11.376953125,0l-19.82421875,19.23828125l21.826171875,32.6171875l-10.83984375,0l-17.138671875-26.513671875l-6.201171875,5.95703125l0,20.556640625l-8.7890625,0z"/></g></svg>
